<svg width="499" height="188" viewBox="0 0 499 188" fill="none" xmlns="http://www.w3.org/2000/svg">
<g clip-path="url(#clip0_5_373)">
<g opacity="0.1">
<path d="M565.373 -357.189C629.006 -337.85 690.913 -296.803 722.721 -241.152C754.53 -185.501 756.256 -114.847 733.901 -54.8596C711.546 4.74191 665.115 53.6826 610.517 77.7571C556.346 102.224 494.435 101.832 436.825 118.791C379.218 136.168 325.908 171.329 263.137 179.975C200.366 189.052 128.142 171.289 78.7003 129.85C29.2589 88.0188 2.17296 22.1062 0.456084 -41.8314C-0.833379 -105.769 22.8116 -168.13 64.0818 -212.336C104.925 -256.149 162.965 -281.8 216.709 -305.508C270.454 -329.217 319.888 -350.871 377.465 -362.702C435.533 -374.555 501.339 -376.53 565.373 -357.189Z" stroke="url(#paint0_linear_5_373)" stroke-width="0.865741" stroke-miterlimit="10"/>
<path d="M41.3855 -45.2162C40.1758 -105.07 62.314 -163.435 100.947 -204.827C139.175 -245.834 193.499 -269.849 243.802 -292.015C294.106 -314.181 340.389 -334.484 394.315 -345.571C448.645 -356.65 510.223 -358.499 570.169 -340.397C629.729 -322.294 687.677 -283.868 717.454 -231.781C747.236 -179.695 748.844 -113.563 727.923 -57.4064C706.994 -1.62248 663.531 44.1924 612.422 66.7243C561.714 89.635 503.759 89.2626 449.847 105.151C395.923 121.404 346.018 154.284 287.268 162.411C228.51 170.91 160.907 154.284 114.624 115.466C68.3484 76.3343 42.994 14.6379 41.3855 -45.2162Z" stroke="url(#paint1_linear_5_373)" stroke-width="0.865741" stroke-miterlimit="10"/>
<path d="M82.315 -48.5947C81.1922 -104.352 101.817 -158.739 137.805 -197.286C173.425 -235.492 224.011 -257.865 270.903 -278.521C317.795 -299.177 360.883 -318.098 411.128 -328.399C461.741 -338.727 519.068 -340.443 574.969 -323.578C630.46 -306.739 684.444 -270.926 712.187 -222.378C739.935 -173.83 741.433 -112.24 721.942 -59.9203C702.446 -7.98038 661.951 34.7022 614.351 55.6976C567.095 77.0392 513.107 76.6932 462.866 91.5235C412.626 106.673 366.135 137.305 311.398 144.88C256.653 152.794 193.673 137.305 150.577 101.167C107.438 64.6493 83.8147 7.1627 82.315 -48.5947Z" stroke="url(#paint2_linear_5_373)" stroke-width="0.865741" stroke-miterlimit="10"/>
<path d="M123.245 -51.973C122.209 -103.647 141.312 -154.037 174.679 -189.764C207.69 -225.164 254.589 -245.9 298.018 -265.034C341.447 -284.167 381.399 -301.718 427.956 -311.281C474.842 -320.851 527.998 -322.447 579.765 -306.838C631.199 -291.21 681.183 -258.037 706.925 -213.067C732.662 -168.096 734.022 -110.983 715.956 -62.5005C697.889 -14.3381 660.372 25.2122 616.247 44.6649C572.472 64.4434 522.443 64.1239 475.885 77.8373C429.332 91.8698 386.252 120.261 335.528 127.277C284.819 134.592 226.431 120.261 186.479 86.7688C146.528 52.9511 124.643 -0.305585 123.245 -51.973Z" stroke="url(#paint3_linear_5_373)" stroke-width="0.865741" stroke-miterlimit="10"/>
<path d="M164.182 -55.3585C163.218 -102.936 180.843 -149.342 211.53 -182.236C241.919 -214.823 285.109 -233.93 325.104 -251.553C365.099 -269.177 401.892 -285.331 444.755 -294.116C487.946 -302.928 536.895 -304.391 584.569 -290C631.918 -275.608 678.02 -245.063 701.662 -203.65C725.308 -162.238 726.636 -109.692 709.974 -65.0479C693.313 -20.6961 658.784 15.7085 618.152 33.6647C577.848 51.8472 531.766 51.5546 488.9 64.1835C446.038 77.1054 406.36 103.248 359.651 109.706C312.948 116.463 259.196 103.248 222.439 72.4037C185.61 41.2728 165.457 -7.77427 164.182 -55.3585Z" stroke="url(#paint4_linear_5_373)" stroke-width="0.865741" stroke-miterlimit="10"/>
<path d="M205.111 -58.7367C204.235 -102.231 220.324 -144.647 248.388 -174.714C276.169 -204.515 315.65 -221.965 352.204 -238.073C388.758 -254.18 422.38 -268.931 461.571 -276.998C501.05 -285.052 545.792 -286.395 589.364 -273.241C632.64 -260.086 674.751 -232.161 696.391 -194.313C718.027 -156.465 719.201 -108.402 703.997 -67.5952C688.785 -27.0274 657.204 6.2249 620.064 22.605C583.22 39.231 541.102 38.985 501.927 50.5369C462.736 62.3546 426.478 86.2431 383.782 92.1486C341.092 98.3136 291.983 86.2032 258.334 58.0454C224.699 29.5879 206.278 -15.2494 205.111 -58.7367Z" stroke="url(#paint5_linear_5_373)" stroke-width="0.865741" stroke-miterlimit="10"/>
<path d="M246.041 -62.1016C245.244 -101.506 259.805 -139.912 285.246 -167.179C310.42 -194.18 346.185 -209.988 379.298 -224.579C412.411 -239.17 442.887 -252.551 478.383 -259.826C514.146 -267.142 554.685 -268.339 594.16 -256.421C633.367 -244.53 671.519 -219.239 691.136 -184.942C710.754 -150.646 711.806 -107.132 698.028 -70.1421C684.261 -33.4182 655.633 -3.2584 621.965 11.5788C588.581 26.6553 550.434 26.4159 514.93 36.8505C479.435 47.5512 446.583 69.1985 407.899 74.5518C369.221 80.1449 324.713 69.2316 294.244 43.6606C263.789 17.9034 247.07 -22.7176 246.041 -62.1016Z" stroke="url(#paint6_linear_5_373)" stroke-width="0.865741" stroke-miterlimit="10"/>
<path d="M286.971 -65.5004C286.246 -100.808 299.285 -135.25 322.112 -159.664C344.663 -183.859 376.74 -198.024 406.397 -211.072C436.057 -224.12 463.382 -236.138 495.199 -242.675C527.254 -249.219 563.582 -250.31 598.956 -239.629C634.098 -228.949 668.29 -206.277 685.886 -175.545C703.481 -144.814 704.411 -105.789 692.058 -72.6563C679.742 -39.743 654.069 -12.7157 623.918 0.578506C594.002 14.0922 559.81 13.8795 527.994 23.2499C496.177 32.8399 466.736 52.2394 432.073 57.0343C397.408 62.0489 357.514 52.2394 330.211 29.3551C302.85 6.21146 287.92 -30.1798 286.971 -65.5004Z" stroke="url(#paint7_linear_5_373)" stroke-width="0.865741" stroke-miterlimit="10"/>
<path d="M327.9 -68.8787C327.27 -100.102 338.817 -130.555 358.97 -152.136C378.914 -173.53 407.254 -186.053 433.499 -197.625C459.744 -209.197 483.881 -219.784 512.01 -225.557C540.359 -231.336 572.471 -232.3 603.752 -222.857C634.821 -213.413 665.058 -193.368 680.59 -166.195C696.123 -139.021 696.931 -104.532 686.068 -75.2431C675.157 -46.1406 652.481 -22.239 625.818 -10.481C599.37 1.48983 569.138 1.27037 541.008 9.56348C512.851 18.0428 486.853 35.1943 456.174 39.4308C425.523 43.8664 390.251 35.1943 366.106 14.957C341.968 -5.4732 328.74 -37.6546 327.9 -68.8787Z" stroke="url(#paint8_linear_5_373)" stroke-width="0.865741" stroke-miterlimit="10"/>
<path d="M368.83 -72.2637C368.287 -99.3908 378.32 -125.853 395.829 -144.614C413.162 -163.202 437.795 -174.089 460.6 -184.138C483.402 -194.186 504.384 -203.424 528.826 -208.425C553.455 -213.446 581.365 -214.284 608.556 -206.077C635.552 -197.871 661.821 -180.453 675.324 -156.864C688.826 -133.275 689.553 -103.275 680.071 -77.8169C670.581 -52.5453 650.873 -31.7558 627.707 -21.5407C604.722 -11.1527 578.449 -11.3256 554.007 -4.12313C529.557 3.24557 506.918 18.1559 480.303 21.8137C453.665 25.6642 423.018 18.1293 402.066 0.532165C381.087 -17.1581 369.561 -45.1299 368.83 -72.2637Z" stroke="url(#paint9_linear_5_373)" stroke-width="0.865741" stroke-miterlimit="10"/>
<path d="M409.759 -75.6424C409.296 -98.6862 417.824 -121.158 432.695 -137.086C447.415 -152.881 468.328 -162.125 487.698 -170.658C507.072 -179.19 524.883 -187.017 545.654 -191.274C566.567 -195.543 590.27 -196.255 613.356 -189.279C636.283 -182.309 658.597 -167.512 670.065 -147.461C681.532 -127.41 682.146 -101.945 674.093 -80.3244C666.036 -58.8433 649.302 -41.2062 629.627 -32.5275C610.066 -23.709 587.793 -23.8819 567.03 -17.7369C546.267 -11.4788 527.055 1.18368 504.433 4.30941C481.818 7.58142 455.788 1.18369 437.97 -13.7532C420.139 -28.8498 410.38 -52.5986 409.759 -75.6424Z" stroke="url(#paint10_linear_5_373)" stroke-width="0.865741" stroke-miterlimit="10"/>
</g>
</g>
<ellipse cx="261.65" cy="119.716" rx="67.7676" ry="67.5819" fill="#586AEA" fill-opacity="0.2"/>
<mask id="mask0_5_373" style="mask-type:alpha" maskUnits="userSpaceOnUse" x="189" y="22" width="146" height="165">
<ellipse cx="261.886" cy="104.755" rx="72.2894" ry="82.2454" fill="#370F4F"/>
</mask>
<g mask="url(#mask0_5_373)">
<path d="M249.573 67.9903C251.34 72.0995 250.552 76.4199 247.811 77.6326C245.07 78.8453 241.425 76.5065 239.658 72.3973C237.891 68.2881 238.678 63.9677 241.419 62.7496C244.16 61.5314 247.811 63.8811 249.573 67.9903Z" fill="#DE9595"/>
<path d="M283.487 72.4078C285.253 68.2981 284.464 63.9793 281.725 62.7614C278.985 61.5435 275.333 63.8877 273.567 67.9973C271.802 72.107 272.59 76.4258 275.33 77.6437C278.069 78.8617 281.721 76.5174 283.487 72.4078Z" fill="#DE9595"/>
<path d="M268.792 83.3931H254.502C254.747 91.5519 249.988 95.8452 249.988 95.8452L261.65 121.394L273.311 95.8452C273.311 95.8452 268.553 91.5519 268.792 83.3931Z" fill="#DE9595"/>
<path d="M268.792 83.3931H254.502C254.537 84.5027 254.475 85.6135 254.315 86.7118C254.315 86.7118 258.472 92.0771 269.165 87.7946C268.871 86.3475 268.746 84.87 268.792 83.3931Z" fill="#C67979"/>
<path d="M262.166 88.2874C265.183 88.2248 268.127 87.3284 270.682 85.6941C271.129 85.4152 271.563 85.1134 271.98 84.7899C272.369 84.4922 272.731 84.1727 273.093 83.8479C274.878 82.2127 276.297 80.2062 277.253 77.9643C278.209 75.7224 278.68 73.2976 278.633 70.8543L278.277 49.3392L244.639 50.0051L245.049 71.5094C245.119 75.23 246.387 78.8245 248.658 81.7419C249.284 82.5506 249.981 83.3007 250.739 83.9832C253.887 86.838 257.976 88.3841 262.193 88.3144L262.166 88.2874Z" fill="#ECC1BA"/>
<path d="M245.752 76.16L245.097 58.5159C245.097 58.5159 246.614 62.035 255.247 58.7595C263.88 55.484 270.181 54.5149 271.89 56.0309C273.598 57.5468 271.698 62.7496 277.606 62.441L278.186 75.2126L280.044 62.441C280.044 62.441 282.678 62.8579 283.328 64.1139C283.328 64.1139 289.411 53.5513 282.737 44.7102C282.737 44.7102 284.653 40.5523 281.869 36.6596C279.086 32.767 277.697 34.8026 277.697 34.8026C277.697 34.8026 264.439 24.6298 250.515 32.4909C236.592 40.352 232.313 49.3392 238.806 66.7181C238.806 66.7181 240.238 62.7117 242.404 62.4681L245.752 76.16Z" fill="#0C1F56"/>
<path d="M266.727 63.9297C266.727 63.9297 271.422 61.2715 274.652 64.1626C277.883 67.0536 275.589 61.9428 272.332 61.0603C269.075 60.1779 267.834 61.4014 267.834 61.4014C267.601 61.1256 267.285 60.9354 266.935 60.86C265.578 60.6759 264.678 64.8772 266.727 63.9297Z" fill="#3A140A"/>
<path d="M255.444 63.9191C255.444 63.9191 250.701 61.3529 247.529 64.2981C244.357 67.2433 246.545 62.1 249.791 61.1579C253.038 60.2159 254.289 61.4124 254.289 61.4124C254.517 61.1251 254.831 60.9216 255.183 60.8331C256.535 60.6436 257.519 64.834 255.444 63.9191Z" fill="#3A140A"/>
<path d="M248.956 69.4845C248.882 69.4506 248.82 69.3958 248.776 69.3267C248.732 69.2575 248.708 69.177 248.708 69.0947C248.708 69.0124 248.732 68.9318 248.776 68.8627C248.82 68.7935 248.882 68.7387 248.956 68.7049L249.03 68.6345C251.692 66.2632 254.028 67.7791 255.529 69.4682C255.566 69.5105 255.595 69.5599 255.614 69.6136C255.632 69.6672 255.641 69.724 255.638 69.7809C255.635 69.8377 255.621 69.8933 255.597 69.9446C255.572 69.996 255.539 70.042 255.497 70.08C255.455 70.1181 255.407 70.1474 255.354 70.1663C255.301 70.1853 255.246 70.1935 255.19 70.1905C255.134 70.1875 255.079 70.1733 255.029 70.1488C254.978 70.1242 254.933 70.0898 254.896 70.0475C252.171 66.9778 250.233 68.7157 249.573 69.2896C249.516 69.3597 249.444 69.4167 249.363 69.4568C249.283 69.4969 249.195 69.5193 249.105 69.5224C249.053 69.5214 249.002 69.5085 248.956 69.4845Z" fill="#2C2636"/>
<path d="M273.822 69.4845C273.896 69.4506 273.958 69.3958 274.002 69.3267C274.046 69.2575 274.069 69.177 274.069 69.0947C274.069 69.0124 274.046 68.9318 274.002 68.8627C273.958 68.7935 273.896 68.7387 273.822 68.7049L273.747 68.6345C271.086 66.2632 268.744 67.7791 267.243 69.4682C267.206 69.5105 267.177 69.5599 267.158 69.6136C267.14 69.6672 267.132 69.724 267.135 69.7809C267.138 69.8377 267.152 69.8933 267.176 69.9447C267.2 69.996 267.234 70.042 267.275 70.08C267.317 70.1187 267.365 70.1487 267.418 70.168C267.471 70.1874 267.527 70.1958 267.583 70.1928C267.639 70.1898 267.694 70.1754 267.744 70.1504C267.795 70.1255 267.84 70.0905 267.877 70.0475C270.607 66.9778 272.544 68.7157 273.199 69.2896C273.257 69.3597 273.328 69.4167 273.409 69.4568C273.49 69.4969 273.578 69.5193 273.667 69.5224C273.721 69.5223 273.774 69.5093 273.822 69.4845Z" fill="#2C2636"/>
<path d="M248.424 75.0881C247.189 75.9868 247.551 78.6505 249.233 81.0435C250.914 83.4365 253.278 84.6275 254.512 83.7505C255.747 82.8734 255.385 80.1827 253.703 77.7951C252.021 75.4075 249.658 74.184 248.424 75.0881Z" fill="#DF7660"/>
<path d="M274.94 75.0881C276.175 75.9868 275.813 78.6505 274.131 81.0435C272.449 83.4365 270.086 84.6275 268.851 83.7505C267.616 82.8734 267.978 80.1827 269.66 77.7951C271.342 75.4075 273.705 74.184 274.94 75.0881Z" fill="#DF7660"/>
<path d="M264.268 74.368H264.119H261.884H261.41H259.175H259.031C258.818 74.368 258.642 74.498 258.642 74.655V75.8623C258.642 76.0247 258.813 76.1546 259.026 76.1546H259.169C259.169 76.1546 259.973 76.2683 260.09 76.669C260.09 76.669 260.09 76.8801 260.968 76.8855H262.31C263.209 76.8855 263.193 76.6852 263.193 76.6852C263.316 76.2846 264.119 76.1871 264.119 76.1871H264.268C264.476 76.1871 264.651 76.0626 264.651 75.9002V74.6929C264.648 74.6456 264.635 74.5995 264.614 74.5573C264.593 74.5151 264.564 74.4778 264.528 74.4474C264.492 74.4171 264.451 74.3944 264.406 74.3808C264.361 74.3671 264.315 74.3628 264.268 74.368Z" fill="#EA344F"/>
<path d="M258.813 74.3572C258.813 74.3572 261.559 71.2117 264.401 74.4059L258.813 74.3572Z" fill="#E0A38B"/>
<path d="M265.455 80.8864C265.434 80.8594 265.407 80.8369 265.377 80.8204C265.347 80.8038 265.313 80.7935 265.279 80.79C265.245 80.7865 265.211 80.7898 265.178 80.7999C265.145 80.8099 265.115 80.8264 265.088 80.8485C261.527 83.8262 259.106 81.0055 259.005 80.881C258.959 80.828 258.895 80.7953 258.826 80.7903C258.758 80.7852 258.69 80.8081 258.637 80.8539C258.61 80.8759 258.588 80.9031 258.572 80.934C258.556 80.965 258.546 80.9989 258.543 81.0338C258.54 81.0687 258.544 81.1038 258.555 81.1371C258.565 81.1704 258.583 81.2011 258.605 81.2275C259.029 81.689 259.54 82.0599 260.106 82.3183C260.673 82.5767 261.284 82.7176 261.905 82.7326C263.211 82.681 264.456 82.159 265.418 81.26C265.445 81.2379 265.467 81.2108 265.483 81.1801C265.499 81.1494 265.509 81.1157 265.513 81.081C265.516 81.0463 265.513 81.0113 265.503 80.9779C265.493 80.9445 265.477 80.9134 265.455 80.8864Z" fill="#A53416"/>
<path d="M256.024 96.7439C256.024 96.7439 260.282 99.6133 267.158 96.7439L265.503 143.932L256.615 135.974L256.024 96.7439Z" fill="#757A0C"/>
<path d="M299.204 107.318C292.94 100.241 269.559 89.3594 269.559 89.3594L261.74 102.396L253.506 89.5435C251.276 90.6263 230.753 100.631 224.835 107.318C218.576 114.394 204.828 189.394 204.828 189.394H319.201C319.201 189.394 305.464 114.394 299.204 107.318Z" fill="#586AEA"/>
<path d="M224.313 189.393H230.908C230.908 189.393 233.037 126.775 232.137 125.005C231.238 123.235 224.313 189.393 224.313 189.393Z" fill="#586AEA"/>
<path d="M291.524 125.005C290.651 126.775 292.743 189.393 292.743 189.393H299.348C299.348 189.393 292.392 123.235 291.524 125.005Z" fill="#586AEA"/>
<path d="M255.247 106.7L253.506 89.5489V108.909L258.398 106.078L260.415 107.258L259.095 104.87L255.247 106.7Z" fill="#586AEA"/>
<path d="M264.385 104.87L263.065 107.258L264.832 106.078L269.564 108.292V89.3594L268.643 106.062L264.385 104.87Z" fill="#586AEA"/>
<path d="M276.324 128.4H287.059V138.475C287.059 138.475 282.269 143.932 276.324 138.957V128.4Z" fill="#586AEA"/>
<path d="M263.065 107.258L264.385 104.87L261.74 102.391L259.095 104.87L260.415 107.258L253.964 152.719L261.74 158.469L269.516 152.719L263.065 107.258Z" fill="#CCD600"/>
<path d="M235.027 70.2425L236.656 69.8473C236.825 69.8169 236.999 69.8208 237.167 69.8588C237.335 69.8968 237.494 69.9682 237.635 70.0687C237.776 70.1693 237.896 70.2971 237.988 70.4449C238.08 70.5927 238.143 70.7576 238.173 70.93C238.278 71.2768 238.245 71.6519 238.081 71.9742C237.916 72.2964 237.634 72.5398 237.294 72.6517L236.932 72.7383L238.875 81.9421C239.115 82.5539 242.883 91.3408 257.621 89.0615C257.576 88.4755 257.732 87.8918 258.063 87.41C258.394 86.9282 258.879 86.5781 259.436 86.4194L263.001 85.6128C264.274 85.3204 265.556 86.2787 265.86 87.7513C266.035 88.4108 265.95 89.1139 265.623 89.7105C265.295 90.3072 264.752 90.7504 264.109 90.9455L260.527 91.763C259.96 91.8629 259.378 91.7543 258.883 91.4566C258.389 91.1589 258.015 90.6917 257.828 90.1389C241.861 92.6834 238.135 82.7542 237.96 82.2777C237.949 82.2531 237.94 82.2277 237.933 82.202L235.98 72.9386L235.644 73.0198C235.301 73.0813 234.949 73.0017 234.663 72.7987C234.378 72.5957 234.183 72.2858 234.122 71.937C234.027 71.5904 234.069 71.2197 234.237 70.9034C234.406 70.5872 234.689 70.3502 235.027 70.2425Z" fill="#CCD600"/>
<path d="M286.415 67.1131C286.274 67.0869 286.129 67.09 285.989 67.1222C285.849 67.1544 285.717 67.2151 285.6 67.3005C285.484 67.386 285.386 67.4945 285.312 67.6195C285.238 67.7446 285.189 67.8835 285.169 68.0281L283.897 73.8969C283.819 74.1818 283.853 74.4865 283.992 74.7463C284.131 75.0061 284.365 75.2005 284.642 75.2883C284.784 75.3145 284.928 75.3114 285.068 75.2792C285.208 75.247 285.341 75.1863 285.457 75.1009C285.573 75.0154 285.671 74.9069 285.745 74.7819C285.819 74.6568 285.868 74.5179 285.888 74.3733L287.16 68.4829C287.23 68.201 287.193 67.9023 287.054 67.6478C286.916 67.3932 286.687 67.202 286.415 67.1131Z" fill="#A9B01A"/>
<path d="M238.056 67.7791C238.035 67.635 237.986 67.4967 237.912 67.3722C237.837 67.2478 237.739 67.1399 237.623 67.055C237.507 66.9701 237.375 66.9099 237.235 66.8781C237.095 66.8462 236.951 66.8433 236.81 66.8696C236.533 66.9596 236.301 67.1555 236.163 67.416C236.025 67.6766 235.992 67.9814 236.07 68.2664L237.38 74.1514C237.401 74.295 237.45 74.4328 237.525 74.5566C237.599 74.6804 237.698 74.7876 237.814 74.872C237.93 74.9563 238.062 75.0161 238.201 75.0476C238.341 75.0791 238.485 75.0818 238.625 75.0555C238.902 74.9655 239.134 74.7696 239.272 74.5091C239.41 74.2485 239.443 73.9437 239.365 73.6587L238.056 67.7791Z" fill="#A9B01A"/>
<path d="M284.536 63.134C284.728 61.8147 284.826 60.483 284.829 59.1493C284.829 44.9971 274.312 33.4816 261.378 33.4816C248.445 33.4816 237.933 44.9971 237.933 59.1493C237.935 60.5287 238.04 61.9061 238.247 63.2693C237.94 63.6567 237.725 64.1105 237.618 64.5958C237.511 65.0811 237.515 65.5849 237.63 66.0684L239.822 75.9489C240.19 77.6055 241.648 78.6559 243.08 78.3148C244.511 77.9737 245.374 76.3333 245.006 74.6766L242.814 64.7907C242.717 64.294 242.503 63.8286 242.191 63.4344C241.878 63.0403 241.477 62.7291 241.02 62.5276L239.727 62.4302C239.59 61.3384 239.521 60.239 239.519 59.1385C239.519 45.8634 249.334 35.0625 261.399 35.0625C273.465 35.0625 283.285 45.8904 283.285 59.1385C283.283 60.3394 283.2 61.5387 283.035 62.7279H282.418C281.908 62.9028 281.454 63.212 281.1 63.6238C280.747 64.0356 280.507 64.5354 280.406 65.0722L278.277 74.9798C277.92 76.6364 278.809 78.2606 280.225 78.6071C281.64 78.9536 283.109 77.8817 283.471 76.225L285.6 66.3282C285.742 65.748 285.717 65.1386 285.528 64.5724C285.34 64.0062 284.995 63.507 284.536 63.134Z" fill="#CCD600"/>
<g clip-path="url(#clip1_5_373)">
<path d="M282.046 131.694C280.496 131.694 279.241 132.95 279.241 134.5C279.241 136.049 280.496 137.305 282.046 137.305C283.595 137.305 284.851 136.049 284.851 134.5C284.851 132.95 283.595 131.694 282.046 131.694ZM282.046 136.15C281.134 136.15 280.396 135.411 280.396 134.5C280.396 133.588 281.134 132.849 282.046 132.849C282.957 132.849 283.696 133.588 283.696 134.5C283.696 135.411 282.957 136.15 282.046 136.15Z" fill="white"/>
<path d="M278.565 134.362C278.565 134.325 278.566 134.289 278.567 134.253H278.358C278.357 134.289 278.355 134.325 278.355 134.362C278.355 136.385 279.99 138.034 282.008 138.058L282.007 137.849C280.104 137.824 278.565 136.269 278.565 134.362Z" fill="white"/>
<path d="M282.213 137.542H281.657C281.426 137.542 281.239 137.729 281.239 137.96C281.239 138.191 281.426 138.379 281.657 138.379H282.213C282.444 138.379 282.632 138.191 282.632 137.96C282.632 137.729 282.444 137.542 282.213 137.542Z" fill="#CCD600"/>
<path d="M285.612 132.816C285.014 131.443 283.644 130.48 282.052 130.48H282.052C280.458 130.48 279.085 131.446 278.489 132.824C277.972 132.982 277.595 133.464 277.595 134.034C277.595 134.568 278.028 135.002 278.563 135.002C278.727 135.002 278.86 134.868 278.86 134.704V133.514C279.236 132.102 280.524 131.059 282.052 131.058H282.053C283.623 131.058 284.94 132.16 285.274 133.631V134.705C285.274 134.869 285.407 135.002 285.571 135.002C286.106 135.002 286.539 134.569 286.539 134.034C286.538 133.453 286.146 132.964 285.612 132.816Z" fill="#CCD600"/>
</g>
</g>
<circle cx="191.518" cy="39.898" r="5.80564" transform="rotate(10 191.518 39.898)" stroke="#586AEA" stroke-width="3.46296"/>
<path d="M150.588 155.689L142.226 158.867L143.654 150.037L150.588 155.689Z" stroke="#EA344F" stroke-width="3.46296"/>
<circle cx="91.7684" cy="46.75" r="6.06018" fill="#808CFF"/>
<circle cx="409.928" cy="174.447" r="3.89583" fill="#586AEA"/>
<rect x="348.958" y="70.7975" width="11.2765" height="11.2765" transform="rotate(-26.6171 348.958 70.7975)" stroke="#E37676" stroke-width="3.46296"/>
<defs>
<linearGradient id="paint0_linear_5_373" x1="374.659" y1="-371.681" x2="374.659" y2="182.293" gradientUnits="userSpaceOnUse">
<stop stop-color="#586AEA" stop-opacity="0.1"/>
<stop offset="1" stop-color="#323C84" stop-opacity="0.6"/>
</linearGradient>
<linearGradient id="paint1_linear_5_373" x1="391.656" y1="-353.963" x2="391.656" y2="164.582" gradientUnits="userSpaceOnUse">
<stop stop-color="#586AEA" stop-opacity="0.1"/>
<stop offset="1" stop-color="#323C84" stop-opacity="0.6"/>
</linearGradient>
<linearGradient id="paint2_linear_5_373" x1="408.652" y1="-336.22" x2="408.652" y2="146.901" gradientUnits="userSpaceOnUse">
<stop stop-color="#586AEA" stop-opacity="0.1"/>
<stop offset="1" stop-color="#323C84" stop-opacity="0.6"/>
</linearGradient>
<linearGradient id="paint3_linear_5_373" x1="425.652" y1="-318.532" x2="425.652" y2="129.143" gradientUnits="userSpaceOnUse">
<stop stop-color="#586AEA" stop-opacity="0.1"/>
<stop offset="1" stop-color="#323C84" stop-opacity="0.6"/>
</linearGradient>
<linearGradient id="paint4_linear_5_373" x1="442.647" y1="-300.788" x2="442.647" y2="111.432" gradientUnits="userSpaceOnUse">
<stop stop-color="#586AEA" stop-opacity="0.1"/>
<stop offset="1" stop-color="#323C84" stop-opacity="0.6"/>
</linearGradient>
<linearGradient id="paint5_linear_5_373" x1="459.642" y1="-283.098" x2="459.642" y2="93.7192" gradientUnits="userSpaceOnUse">
<stop stop-color="#586AEA" stop-opacity="0.1"/>
<stop offset="1" stop-color="#323C84" stop-opacity="0.6"/>
</linearGradient>
<linearGradient id="paint6_linear_5_373" x1="476.647" y1="-265.36" x2="476.647" y2="75.9824" gradientUnits="userSpaceOnUse">
<stop stop-color="#586AEA" stop-opacity="0.1"/>
<stop offset="1" stop-color="#323C84" stop-opacity="0.6"/>
</linearGradient>
<linearGradient id="paint7_linear_5_373" x1="493.652" y1="-247.633" x2="493.652" y2="58.3151" gradientUnits="userSpaceOnUse">
<stop stop-color="#586AEA" stop-opacity="0.1"/>
<stop offset="1" stop-color="#323C84" stop-opacity="0.6"/>
</linearGradient>
<linearGradient id="paint8_linear_5_373" x1="510.622" y1="-229.934" x2="510.622" y2="40.5641" gradientUnits="userSpaceOnUse">
<stop stop-color="#586AEA" stop-opacity="0.1"/>
<stop offset="1" stop-color="#323C84" stop-opacity="0.6"/>
</linearGradient>
<linearGradient id="paint9_linear_5_373" x1="527.624" y1="-212.228" x2="527.624" y2="22.7968" gradientUnits="userSpaceOnUse">
<stop stop-color="#586AEA" stop-opacity="0.1"/>
<stop offset="1" stop-color="#323C84" stop-opacity="0.6"/>
</linearGradient>
<linearGradient id="paint10_linear_5_373" x1="544.622" y1="-194.507" x2="544.622" y2="5.14534" gradientUnits="userSpaceOnUse">
<stop stop-color="#586AEA" stop-opacity="0.1"/>
<stop offset="1" stop-color="#323C84" stop-opacity="0.6"/>
</linearGradient>
<clipPath id="clip0_5_373">
<rect width="498.667" height="182.671" fill="white"/>
</clipPath>
<clipPath id="clip1_5_373">
<rect width="8.9436" height="7.89843" fill="white" transform="translate(277.595 130.48)"/>
</clipPath>
</defs>
</svg>
