<svg width="41" height="40" viewBox="0 0 41 40" fill="none" xmlns="http://www.w3.org/2000/svg">
<path d="M23.8333 16.6667C25.1594 16.6667 26.4312 17.1935 27.3689 18.1312C28.3066 19.0688 28.8333 20.3406 28.8333 21.6667V27.5H25.5V21.6667C25.5 21.2247 25.3244 20.8007 25.0119 20.4882C24.6993 20.1756 24.2754 20 23.8333 20C23.3913 20 22.9674 20.1756 22.6548 20.4882C22.3423 20.8007 22.1667 21.2247 22.1667 21.6667V27.5H18.8333V21.6667C18.8333 20.3406 19.3601 19.0688 20.2978 18.1312C21.2355 17.1935 22.5073 16.6667 23.8333 16.6667Z" stroke="#9CA3AF" stroke-width="1.66667" stroke-linecap="round" stroke-linejoin="round"/>
<path d="M15.5 17.5H12.1667V27.5H15.5V17.5Z" stroke="#9CA3AF" stroke-width="1.66667" stroke-linecap="round" stroke-linejoin="round"/>
<path d="M13.8333 15C14.7538 15 15.5 14.2538 15.5 13.3334C15.5 12.4129 14.7538 11.6667 13.8333 11.6667C12.9128 11.6667 12.1667 12.4129 12.1667 13.3334C12.1667 14.2538 12.9128 15 13.8333 15Z" stroke="#9CA3AF" stroke-width="1.66667" stroke-linecap="round" stroke-linejoin="round"/>
</svg>
