<svg width="179" height="60" viewBox="0 0 179 60" fill="none" xmlns="http://www.w3.org/2000/svg">
<rect x="4.51772" width="26.7879" height="42.965" rx="3.305" fill="white"/>
<g filter="url(#filter0_d_5_370)">
<rect x="6.26205" y="3.686" width="22.0913" height="4.17474" rx="1.21763" fill="#0F6E9F" fill-opacity="0.73" shape-rendering="crispEdges"/>
</g>
<rect x="15.2308" y="0.396477" width="26.7879" height="42.965" rx="3.305" transform="rotate(15 15.2308 0.396477)" fill="#39CBCB"/>
<rect x="22.8438" y="2.72814" width="26.7879" height="42.965" rx="3.305" transform="rotate(26 22.8438 2.72814)" fill="#E88005"/>
<rect x="29.3509" y="5.76966" width="26.7879" height="42.965" rx="3.305" transform="rotate(35 29.3509 5.76966)" fill="#2132CC" fill-opacity="0.98"/>
<rect x="38.283" y="11.851" width="26.7879" height="42.965" rx="3.305" transform="rotate(50 38.283 11.851)" fill="#39CBCB"/>
<circle cx="5.04448" cy="48.0426" r="5.04448" fill="#EAAE15"/>
<path d="M81.4239 39.9946H72.7051V23.1899H74.6739V38.2133H81.4239V39.9946ZM93.4473 39.9946H91.5255V38.0961H91.4786C90.6817 39.5493 89.4473 40.2758 87.7755 40.2758C84.9161 40.2758 83.4864 38.5727 83.4864 35.1664V27.9946H85.3965V34.8618C85.3965 37.393 86.3653 38.6586 88.3028 38.6586C89.2403 38.6586 90.0098 38.3149 90.6114 37.6274C91.2208 36.9321 91.5255 36.0258 91.5255 34.9086V27.9946H93.4473V39.9946ZM107.58 39.9946H105.658V37.9555H105.611C104.721 39.5024 103.346 40.2758 101.486 40.2758C99.9786 40.2758 98.7715 39.7407 97.8653 38.6704C96.9669 37.5922 96.5176 36.1274 96.5176 34.2758C96.5176 32.2914 97.0176 30.7016 98.0176 29.5063C99.0176 28.311 100.35 27.7133 102.014 27.7133C103.662 27.7133 104.861 28.3618 105.611 29.6586H105.658V22.2289H107.58V39.9946ZM105.658 34.5688V32.7993C105.658 31.8305 105.338 31.0102 104.697 30.3383C104.057 29.6664 103.244 29.3305 102.26 29.3305C101.088 29.3305 100.166 29.7602 99.4942 30.6196C98.8223 31.4789 98.4864 32.6664 98.4864 34.1821C98.4864 35.5649 98.8067 36.6586 99.4473 37.4633C100.096 38.2602 100.963 38.6586 102.049 38.6586C103.119 38.6586 103.986 38.2719 104.65 37.4985C105.322 36.725 105.658 35.7485 105.658 34.5688ZM120.061 39.9946H118.139V38.1196H118.092C117.256 39.5571 116.025 40.2758 114.4 40.2758C113.205 40.2758 112.268 39.9594 111.588 39.3266C110.916 38.6938 110.58 37.8539 110.58 36.8071C110.58 34.5649 111.9 33.2602 114.541 32.893L118.139 32.3891C118.139 30.35 117.315 29.3305 115.666 29.3305C114.221 29.3305 112.916 29.8227 111.752 30.8071V28.8383C112.932 28.0883 114.291 27.7133 115.83 27.7133C118.65 27.7133 120.061 29.2055 120.061 32.1899V39.9946ZM118.139 33.9243L115.244 34.3227C114.354 34.4477 113.682 34.6704 113.229 34.9907C112.775 35.3032 112.549 35.8618 112.549 36.6664C112.549 37.2524 112.756 37.7329 113.17 38.1079C113.592 38.475 114.15 38.6586 114.846 38.6586C115.799 38.6586 116.584 38.3266 117.201 37.6625C117.826 36.9907 118.139 36.143 118.139 35.1196V33.9243Z" fill="#131720"/>
<path d="M131.861 39.4438C130.94 39.9985 129.846 40.2758 128.58 40.2758C126.869 40.2758 125.486 39.7211 124.432 38.6118C123.385 37.4946 122.861 36.0493 122.861 34.2758C122.861 32.2993 123.428 30.7133 124.561 29.518C125.693 28.3149 127.205 27.7133 129.096 27.7133C130.15 27.7133 131.08 27.9086 131.885 28.2993V30.268C130.994 29.643 130.041 29.3305 129.025 29.3305C127.799 29.3305 126.791 29.7719 126.002 30.6547C125.221 31.5297 124.83 32.6821 124.83 34.1118C124.83 35.518 125.197 36.6274 125.932 37.4399C126.674 38.2524 127.666 38.6586 128.908 38.6586C129.955 38.6586 130.94 38.311 131.861 37.6157V39.4438ZM143.357 39.9946H141.436V38.1196H141.389C140.553 39.5571 139.322 40.2758 137.697 40.2758C136.502 40.2758 135.565 39.9594 134.885 39.3266C134.213 38.6938 133.877 37.8539 133.877 36.8071C133.877 34.5649 135.197 33.2602 137.838 32.893L141.436 32.3891C141.436 30.35 140.611 29.3305 138.963 29.3305C137.518 29.3305 136.213 29.8227 135.049 30.8071V28.8383C136.229 28.0883 137.588 27.7133 139.127 27.7133C141.947 27.7133 143.357 29.2055 143.357 32.1899V39.9946ZM141.436 33.9243L138.541 34.3227C137.65 34.4477 136.979 34.6704 136.525 34.9907C136.072 35.3032 135.846 35.8618 135.846 36.6664C135.846 37.2524 136.053 37.7329 136.467 38.1079C136.889 38.475 137.447 38.6586 138.143 38.6586C139.096 38.6586 139.881 38.3266 140.498 37.6625C141.123 36.9907 141.436 36.143 141.436 35.1196V33.9243ZM153.236 29.9399C152.9 29.6821 152.416 29.5532 151.783 29.5532C150.963 29.5532 150.275 29.9399 149.721 30.7133C149.174 31.4868 148.9 32.5414 148.9 33.8774V39.9946H146.979V27.9946H148.9V30.4672H148.947C149.221 29.6235 149.639 28.9672 150.201 28.4985C150.764 28.0219 151.393 27.7836 152.088 27.7836C152.588 27.7836 152.971 27.8383 153.236 27.9477V29.9399ZM165.565 39.9946H163.643V37.9555H163.596C162.705 39.5024 161.33 40.2758 159.471 40.2758C157.963 40.2758 156.756 39.7407 155.85 38.6704C154.951 37.5922 154.502 36.1274 154.502 34.2758C154.502 32.2914 155.002 30.7016 156.002 29.5063C157.002 28.311 158.334 27.7133 159.998 27.7133C161.647 27.7133 162.846 28.3618 163.596 29.6586H163.643V22.2289H165.565V39.9946ZM163.643 34.5688V32.7993C163.643 31.8305 163.322 31.0102 162.682 30.3383C162.041 29.6664 161.229 29.3305 160.244 29.3305C159.072 29.3305 158.15 29.7602 157.479 30.6196C156.807 31.4789 156.471 32.6664 156.471 34.1821C156.471 35.5649 156.791 36.6586 157.432 37.4633C158.08 38.2602 158.947 38.6586 160.033 38.6586C161.104 38.6586 161.971 38.2719 162.635 37.4985C163.307 36.725 163.643 35.7485 163.643 34.5688ZM168.729 39.561V37.4985C169.775 38.2719 170.928 38.6586 172.186 38.6586C173.873 38.6586 174.717 38.0961 174.717 36.9711C174.717 36.6508 174.643 36.3813 174.494 36.1625C174.354 35.936 174.158 35.7368 173.908 35.5649C173.666 35.393 173.377 35.2407 173.041 35.1079C172.713 34.9672 172.357 34.8227 171.975 34.6743C171.443 34.4633 170.975 34.2524 170.568 34.0414C170.17 33.8227 169.834 33.5805 169.561 33.3149C169.295 33.0414 169.092 32.7329 168.951 32.3891C168.818 32.0454 168.752 31.643 168.752 31.1821C168.752 30.6196 168.881 30.1235 169.139 29.6938C169.397 29.2563 169.74 28.893 170.17 28.6039C170.6 28.3071 171.088 28.0844 171.635 27.936C172.19 27.7875 172.76 27.7133 173.346 27.7133C174.385 27.7133 175.315 27.893 176.135 28.2524V30.1977C175.252 29.6196 174.236 29.3305 173.088 29.3305C172.729 29.3305 172.404 29.3735 172.115 29.4594C171.826 29.5375 171.576 29.6508 171.365 29.7993C171.162 29.9477 171.002 30.1274 170.885 30.3383C170.775 30.5414 170.721 30.768 170.721 31.018C170.721 31.3305 170.775 31.5922 170.885 31.8032C171.002 32.0141 171.17 32.2016 171.389 32.3657C171.607 32.5297 171.873 32.6782 172.186 32.811C172.498 32.9438 172.854 33.0883 173.252 33.2446C173.783 33.4477 174.26 33.6586 174.682 33.8774C175.104 34.0883 175.463 34.3305 175.76 34.6039C176.057 34.8696 176.283 35.1782 176.44 35.5297C176.604 35.8813 176.686 36.2993 176.686 36.7836C176.686 37.3774 176.553 37.893 176.287 38.3305C176.029 38.768 175.682 39.1313 175.244 39.4204C174.807 39.7094 174.303 39.9243 173.732 40.0649C173.162 40.2055 172.565 40.2758 171.94 40.2758C170.705 40.2758 169.635 40.0375 168.729 39.561Z" fill="#E88005"/>
<defs>
<filter id="filter0_d_5_370" x="5.74021" y="3.686" width="23.4829" height="6.61001" filterUnits="userSpaceOnUse" color-interpolation-filters="sRGB">
<feFlood flood-opacity="0" result="BackgroundImageFix"/>
<feColorMatrix in="SourceAlpha" type="matrix" values="0 0 0 0 0 0 0 0 0 0 0 0 0 0 0 0 0 0 127 0" result="hardAlpha"/>
<feOffset dx="0.173948" dy="1.73948"/>
<feGaussianBlur stdDeviation="0.347895"/>
<feComposite in2="hardAlpha" operator="out"/>
<feColorMatrix type="matrix" values="0 0 0 0 0 0 0 0 0 0 0 0 0 0 0 0 0 0 0.25 0"/>
<feBlend mode="normal" in2="BackgroundImageFix" result="effect1_dropShadow_5_370"/>
<feBlend mode="normal" in="SourceGraphic" in2="effect1_dropShadow_5_370" result="shape"/>
</filter>
</defs>
</svg>
