<svg width="499" height="206" viewBox="0 0 499 206" fill="none" xmlns="http://www.w3.org/2000/svg">
<g clip-path="url(#clip0_2912_1433)">
<g opacity="0.1">
<path d="M314.967 -250.189C378.6 -230.85 440.507 -189.803 472.315 -134.152C504.124 -78.5009 505.85 -7.84662 483.495 52.1404C461.14 111.742 414.709 160.683 360.111 184.757C305.94 209.224 244.029 208.832 186.419 225.791C128.812 243.168 75.5022 278.329 12.7311 286.975C-50.0395 296.052 -122.264 278.289 -171.706 236.85C-221.147 195.019 -248.233 129.106 -249.95 65.1686C-251.239 1.23141 -227.594 -61.13 -186.324 -105.336C-145.481 -149.149 -87.4412 -174.8 -33.6968 -198.508C20.0479 -222.217 69.4821 -243.871 127.059 -255.702C185.127 -267.555 250.933 -269.53 314.967 -250.189Z" stroke="url(#paint0_linear_2912_1433)" stroke-width="0.865741" stroke-miterlimit="10"/>
<path d="M-209.02 61.7838C-210.23 1.92983 -188.092 -56.4348 -149.458 -97.827C-111.231 -138.834 -56.907 -162.849 -6.60342 -185.015C43.7002 -207.181 89.9832 -227.484 143.909 -238.571C198.24 -249.65 259.818 -251.499 319.763 -233.397C379.323 -215.294 437.271 -176.868 467.049 -124.781C496.831 -72.6951 498.439 -6.56291 477.517 49.5936C456.588 105.378 413.125 151.192 362.016 173.724C311.309 196.635 253.353 196.263 199.442 212.151C145.517 228.404 95.6123 261.284 36.8618 269.411C-21.8956 277.91 -89.4982 261.284 -135.782 222.466C-182.057 183.334 -207.412 121.638 -209.02 61.7838Z" stroke="url(#paint1_linear_2912_1433)" stroke-width="0.865741" stroke-miterlimit="10"/>
<path d="M-168.091 58.4053C-169.214 2.64772 -148.589 -51.7395 -112.6 -90.2858C-76.9805 -128.492 -26.3946 -150.865 20.4971 -171.521C67.3888 -192.177 110.477 -211.098 160.722 -221.399C211.336 -231.727 268.662 -233.443 324.563 -216.578C380.054 -199.739 434.038 -163.926 461.782 -115.378C489.529 -66.8296 491.028 -5.23958 471.536 47.0797C452.04 99.0196 411.546 141.702 363.945 162.698C316.689 184.039 262.701 183.693 212.461 198.524C162.22 213.673 115.729 244.305 60.9922 251.88C6.24771 259.794 -56.7329 244.305 -99.8286 208.167C-142.968 171.649 -166.591 114.163 -168.091 58.4053Z" stroke="url(#paint2_linear_2912_1433)" stroke-width="0.865741" stroke-miterlimit="10"/>
<path d="M-127.161 55.027C-128.197 3.35298 -109.094 -47.0375 -75.7274 -82.7639C-42.7155 -118.164 4.18314 -138.9 47.6118 -158.034C91.0409 -177.167 130.993 -194.718 177.55 -204.281C224.436 -213.851 277.592 -215.447 329.359 -199.838C380.793 -184.21 430.777 -151.037 456.519 -106.067C482.256 -61.0964 483.617 -3.98258 465.55 44.4995C447.484 92.6619 409.966 132.212 365.841 151.665C322.066 171.443 272.037 171.124 225.479 184.837C178.926 198.87 135.846 227.261 85.1223 234.277C34.413 241.592 -23.9749 227.261 -63.9267 193.769C-103.878 159.951 -125.763 106.694 -127.161 55.027Z" stroke="url(#paint3_linear_2912_1433)" stroke-width="0.865741" stroke-miterlimit="10"/>
<path d="M-86.2242 51.6415C-87.1878 4.06424 -69.5627 -42.3425 -38.8764 -75.2356C-8.48697 -107.823 34.7029 -126.93 74.6982 -144.553C114.693 -162.177 151.486 -178.331 194.349 -187.116C237.54 -195.928 286.489 -197.391 334.163 -183C381.512 -168.608 427.614 -138.063 451.256 -96.6503C474.902 -55.2379 476.23 -2.69237 459.569 41.9521C442.907 86.3039 408.378 122.708 367.746 140.665C327.442 158.847 281.36 158.555 238.494 171.183C195.633 184.105 155.954 210.248 109.245 216.706C62.5422 223.463 8.79052 210.248 -27.9667 179.404C-64.7961 148.273 -84.9491 99.2257 -86.2242 51.6415Z" stroke="url(#paint4_linear_2912_1433)" stroke-width="0.865741" stroke-miterlimit="10"/>
<path d="M-45.2945 48.2633C-46.1713 4.76925 -30.082 -37.6474 -2.01777 -67.714C25.7634 -97.5148 65.2442 -114.965 101.798 -131.073C138.352 -147.18 171.974 -161.931 211.165 -169.998C250.644 -178.052 295.386 -179.395 338.959 -166.241C382.235 -153.086 424.345 -125.161 445.985 -87.3127C467.621 -49.4651 468.795 -1.40244 453.591 39.4048C438.379 79.9726 406.798 113.225 369.658 129.605C332.815 146.231 290.696 145.985 251.521 157.537C212.331 169.355 176.072 193.243 133.376 199.149C90.6859 205.314 41.5774 193.203 7.92838 165.045C-25.7064 136.588 -44.1283 91.7506 -45.2945 48.2633Z" stroke="url(#paint5_linear_2912_1433)" stroke-width="0.865741" stroke-miterlimit="10"/>
<path d="M-4.36489 44.8984C-5.16202 5.49436 9.39881 -32.9121 34.8406 -60.1789C60.0139 -87.1796 95.7786 -102.988 128.892 -117.579C162.005 -132.17 192.481 -145.551 227.977 -152.826C263.74 -160.142 304.279 -161.339 343.754 -149.421C382.961 -137.53 421.113 -112.239 440.73 -77.9421C460.348 -43.6457 461.4 -0.131911 447.622 36.8579C433.855 73.5818 405.227 103.742 371.559 118.579C338.175 133.655 300.028 133.416 264.524 143.851C229.029 154.551 196.177 176.198 157.493 181.552C118.815 187.145 74.3067 176.232 43.8376 150.661C13.3832 124.903 -3.33629 84.2824 -4.36489 44.8984Z" stroke="url(#paint6_linear_2912_1433)" stroke-width="0.865741" stroke-miterlimit="10"/>
<path d="M36.5648 41.4996C35.8404 6.1922 48.8796 -28.2503 71.7062 -52.6641C94.2575 -76.8587 126.335 -91.0239 155.991 -104.072C185.651 -117.12 212.976 -129.138 244.793 -135.675C276.849 -142.219 313.177 -143.31 348.55 -132.629C383.692 -121.949 417.884 -99.2773 435.48 -68.5453C453.075 -37.8137 454.005 1.21125 441.652 34.3437C429.336 67.257 403.663 94.2843 373.512 107.579C343.596 121.092 309.404 120.879 277.588 130.25C245.771 139.84 216.331 159.239 181.667 164.034C147.002 169.049 107.108 159.239 79.8051 136.355C52.4438 113.211 37.5138 76.8202 36.5648 41.4996Z" stroke="url(#paint7_linear_2912_1433)" stroke-width="0.865741" stroke-miterlimit="10"/>
<path d="M77.4943 38.1213C76.864 6.89756 88.4109 -23.5549 108.564 -45.1358C128.508 -66.5303 156.848 -79.053 183.093 -90.6247C209.338 -102.197 233.475 -112.784 261.604 -118.557C289.953 -124.336 322.066 -125.3 353.346 -115.857C384.415 -106.413 414.652 -86.3684 430.184 -59.1948C445.717 -32.0211 446.525 2.46834 435.662 31.7569C424.751 60.8594 402.075 84.761 375.412 96.519C348.964 108.49 318.732 108.27 290.602 116.563C262.445 125.043 236.447 142.194 205.768 146.431C175.117 150.866 139.845 142.194 115.7 121.957C91.5621 101.527 78.3344 69.3454 77.4943 38.1213Z" stroke="url(#paint8_linear_2912_1433)" stroke-width="0.865741" stroke-miterlimit="10"/>
<path d="M118.424 34.7363C117.881 7.60923 127.914 -18.8531 145.423 -37.6142C162.756 -56.202 187.389 -67.0888 210.195 -77.1376C232.996 -87.1864 253.978 -96.4239 278.42 -101.425C303.049 -106.446 330.959 -107.284 358.15 -99.0775C385.146 -90.8707 411.416 -73.4532 424.918 -49.864C438.42 -26.2752 439.147 3.72504 429.665 29.1831C420.175 54.4547 400.468 75.2442 377.301 85.4593C354.317 95.8473 328.043 95.6744 303.601 102.877C279.151 110.246 256.512 125.156 229.898 128.814C203.259 132.664 172.612 125.129 151.66 107.532C130.681 89.8419 119.156 61.8701 118.424 34.7363Z" stroke="url(#paint9_linear_2912_1433)" stroke-width="0.865741" stroke-miterlimit="10"/>
<path d="M159.353 31.3576C158.89 8.31382 167.418 -14.1581 182.289 -30.0859C197.009 -45.8806 217.922 -55.1249 237.292 -63.6575C256.666 -72.1901 274.477 -80.0174 295.248 -84.2737C316.161 -88.5433 339.864 -89.255 362.95 -82.2788C385.877 -75.309 408.191 -60.5119 419.659 -40.4605C431.127 -20.4095 431.74 5.05519 423.687 26.6756C415.631 48.1567 398.896 65.7938 379.222 74.4725C359.661 83.291 337.387 83.1181 316.624 89.2632C295.861 95.5213 276.65 108.184 254.027 111.309C231.412 114.581 205.383 108.184 187.564 93.2468C169.733 78.1503 159.975 54.4014 159.353 31.3576Z" stroke="url(#paint10_linear_2912_1433)" stroke-width="0.865741" stroke-miterlimit="10"/>
</g>
<circle cx="321.586" cy="147.547" r="5.80564" transform="rotate(-19.0653 321.586 147.547)" stroke="#E88005" stroke-width="3.46296"/>
<g filter="url(#filter0_d_2912_1433)">
<path d="M336.069 147.999L332.918 150.938L336.973 152.938L335.516 155.843L331.477 153.887L330.934 158.126L321.873 147.303L336.069 147.999Z" fill="white"/>
<path d="M336.069 147.999L332.918 150.938L336.973 152.938L335.516 155.843L331.477 153.887L330.934 158.126L321.873 147.303L336.069 147.999Z" stroke="#E88005" stroke-width="1.73148"/>
</g>
</g>
<circle cx="91.7682" cy="64.75" r="6.06018" fill="#808CFF"/>
<circle cx="409.928" cy="192.447" r="3.89583" fill="#586AEA"/>
<rect x="348.958" y="88.7975" width="11.2765" height="11.2765" transform="rotate(-26.6171 348.958 88.7975)" stroke="#E37676" stroke-width="3.46296"/>
<g clip-path="url(#clip1_2912_1433)">
<path d="M239.379 23.7535C239.576 23.8733 239.954 24.002 240.206 24.0351C240.443 24.0366 240.27 23.9249 239.821 23.772C239.372 23.6192 239.167 23.6021 239.379 23.7535Z" fill="#586AEA"/>
<path d="M240.023 24.3427C239.092 24.1312 238.24 23.8411 238.122 23.7218C238.028 23.6105 237.973 23.6181 238.027 23.7686C238.089 23.8955 237.621 24.185 236.979 24.3626C235.648 24.781 235.284 24.7628 235.967 24.3087C236.341 24.0661 236.285 24.0736 235.738 24.2835C235.365 24.4471 235.095 24.6193 235.142 24.7145C235.251 24.9365 234.529 25.3508 234.245 25.2541C234.103 25.2058 234.215 25.0326 234.461 24.8524C234.89 24.6022 234.874 24.5705 234.391 24.7492C234.113 24.866 233.907 25.0069 233.953 25.1021C234.039 25.3161 233.022 25.8945 232.738 25.7978C232.62 25.7575 232.637 25.6311 232.788 25.4977C232.963 25.3724 232.924 25.3326 232.702 25.3628C232.496 25.4247 232.377 25.5425 232.423 25.6377C232.556 25.8678 231.516 26.4381 231.208 26.3334C231.067 26.2851 231.242 26.0807 231.607 25.8617C232.195 25.5335 232.171 25.5254 231.402 25.8446C230.942 26.0313 230.552 26.3213 230.536 26.4477C230.511 26.5977 230.249 26.6671 229.934 26.5861C229.381 26.4244 227.788 26.9912 227.928 27.2767C228.037 27.4987 227.315 27.9131 227.031 27.8164C226.889 27.768 227.001 27.5949 227.247 27.4146C227.621 27.172 227.565 27.1795 227.018 27.3894C226.645 27.5531 226.375 27.7252 226.422 27.8204C226.507 28.0344 225.808 28.4567 225.524 28.36C225.406 28.3198 225.423 28.1934 225.574 28.06C225.749 27.9346 225.71 27.8949 225.488 27.925C225.282 27.987 225.163 28.1048 225.209 28.1999C225.318 28.422 224.302 29.0004 223.995 28.8956C223.876 28.8554 223.988 28.6822 224.227 28.5256C224.489 28.3771 224.188 28.4068 223.57 28.5925C222.944 28.8019 222.491 29.0441 222.538 29.1392C222.647 29.3613 221.607 29.9316 221.299 29.8269C221.181 29.7866 221.293 29.6134 221.539 29.4332C221.968 29.183 221.953 29.1513 221.469 29.33C221.191 29.4468 220.985 29.5878 221.032 29.6829C221.141 29.9049 220.101 30.4753 219.793 30.3706C219.651 30.3222 219.827 30.1178 220.192 29.8988C220.756 29.5626 220.756 29.5626 219.986 29.8817C219.526 30.0685 219.177 30.3192 219.192 30.4299C219.245 30.6595 217.358 31.3905 217.027 31.2777C216.932 31.2454 217.131 31.0491 217.497 30.8301C217.854 30.6348 217.696 30.6338 217.133 30.891C216.577 31.1246 216.132 31.4221 216.108 31.5721C216.091 31.6985 215.916 31.8239 215.702 31.8304C215.442 31.8208 215.442 31.7418 215.657 31.5772C215.92 31.3496 215.872 31.3335 215.444 31.5046C215.174 31.5978 214.952 31.7861 214.99 31.9049C215.044 32.1345 213.108 33.0864 212.824 32.9897C212.706 32.9494 212.516 32.964 212.412 33.0345C212.285 33.0969 212.356 33.1211 212.554 33.0828C212.982 32.9907 212.958 33.0617 212.184 33.9342C211.403 34.8303 210.612 36.9911 210.707 38.0272C210.752 38.4385 211.272 40.7817 211.848 43.1963C212.447 45.619 212.906 47.6771 212.882 47.7481C212.857 47.8191 212.7 47.66 212.544 47.4219C212.31 47.0251 212.294 47.0724 212.463 47.7375C212.685 48.6322 212.858 48.823 212.831 48.2063C212.79 47.3207 213.046 47.9626 213.521 50.0525C213.829 51.2401 213.987 52.2451 213.892 52.2919C213.82 52.3468 213.626 51.9107 213.496 51.3645C213.289 50.4225 212.954 49.7801 213.122 50.6032C213.351 51.7114 213.684 52.5909 213.867 52.521C214.088 52.4908 214.999 55.4688 214.886 55.8C214.854 55.8947 214.658 55.6958 214.463 55.3388C214.197 54.8787 214.189 54.9814 214.459 55.8131C214.668 56.4389 214.886 56.962 214.957 56.9862C215.028 57.0104 215.021 56.8759 214.912 56.6539C214.569 55.9561 214.886 55.8 215.261 56.4822C215.971 57.8069 216.796 58.405 218.784 59.0818C221.197 59.9035 221.878 59.8447 225.477 58.5872C227.332 57.9509 228.393 57.7048 228.455 57.9107C228.493 58.1086 228.603 58.1725 228.754 58.0391C228.874 57.9213 228.875 57.7632 228.749 57.6675C228.623 57.5719 229.33 57.2049 230.32 56.8555C231.311 56.5062 232.246 56.3225 232.411 56.4579C232.717 56.7207 235.389 55.7024 235.535 55.2765C235.591 55.1108 235.996 54.8526 236.408 54.7287L237.185 54.465L238.99 56.2946C240.717 58.0447 241.307 58.4042 241.313 57.6928C241.322 57.5111 241.639 56.2721 242.021 54.9228L242.703 52.461L244.494 51.8559C246.975 51.0102 248.193 49.9193 248.872 47.9317C249.26 46.7959 249.344 46.085 249.224 45.1989C248.997 43.8536 249.014 43.6482 249.336 44.0218C249.469 44.1729 249.501 44.1573 249.471 43.9357C249.424 43.7615 249.283 43.6342 249.14 43.6649C249.022 43.7036 248.719 42.8875 248.45 41.8977C247.981 40.0213 247.945 39.5072 248.337 39.984C248.471 40.1351 248.502 40.1195 248.472 39.8979C248.426 39.7237 248.285 39.5964 248.142 39.6271C248.023 39.6658 247.759 39.0476 247.567 38.2954C247.183 36.712 247.243 36.0721 247.67 37.221C247.988 38.0689 247.976 37.5629 247.629 36.3354C247.49 35.8919 247.286 35.5586 247.144 35.5893C247.025 35.628 246.769 34.9861 246.585 34.2103C246.217 32.5796 246.235 32.2951 246.649 32.938C246.861 33.2477 246.862 33.0896 246.677 32.4718C246.514 31.9412 246.273 31.4891 246.115 31.4881C245.964 31.4634 245.839 31.2887 245.833 31.0752C245.827 30.8617 245.922 30.8149 246.055 30.966C246.18 31.1407 246.26 31.0621 246.222 30.7852C246.225 30.4691 246.138 30.4132 245.955 30.5622C245.78 30.6875 245.617 30.394 245.471 29.737C245.235 28.5735 245.252 28.3681 245.55 28.7336C245.902 29.1706 245.618 27.991 245.181 27.261L244.798 26.6024L245.132 27.4029C245.637 28.6314 245.368 28.7245 244.752 27.5112C244.448 26.9322 244.294 26.3779 244.397 26.3074C244.883 25.8915 243.117 25.1056 240.023 24.3427ZM244.091 25.9655C244.24 26.1483 244.271 26.2908 244.129 26.2424C244.011 26.2021 243.767 25.9871 243.618 25.8044C243.469 25.6216 243.462 25.4872 243.581 25.5275C243.723 25.5758 243.942 25.7827 244.091 25.9655ZM243.346 26.2137C243.786 26.6275 244.295 27.3027 244.45 27.6989C244.909 28.7532 248.801 44.6587 248.856 45.7341C249.029 48.0908 247.176 50.5767 244.711 51.3751C242.35 52.103 242.35 52.103 241.626 54.8413C241.253 56.1669 240.92 57.2951 240.857 57.3263C240.793 57.3575 239.952 56.6486 238.979 55.7096L237.173 54.038L230.41 56.4372C221.23 59.7298 221.911 59.5919 219.166 58.7364C215.782 57.6634 215.922 57.9488 213.327 47.4506C211.053 38.3298 210.866 36.9453 211.747 35.291C212.718 33.4554 213.44 33.1201 224.958 29.0125C237.198 24.6486 238.379 24.2847 239.255 24.5828L239.862 24.8159L239.069 25.048C233.244 26.9472 215.691 33.4113 215.134 33.882C214.458 34.4705 214.458 34.4705 215.458 33.8603C216.737 33.1334 238.751 25.2831 240.136 25.0943C241.387 24.9126 242.334 25.2349 243.346 26.2137ZM246.409 32.3278C246.36 32.4698 246.258 32.4612 246.14 32.3419C246.046 32.2306 245.992 32.0011 246.033 31.8828C246.081 31.7408 246.207 31.7574 246.301 31.8687C246.419 31.988 246.449 32.2095 246.409 32.3278ZM229.488 26.9626C229.234 27.0875 228.782 27.2506 228.482 27.2803C228.07 27.3251 228.15 27.2465 228.768 26.9817C229.736 26.5453 230.163 26.5322 229.488 26.9626ZM247.407 36.3656C247.359 36.5076 247.256 36.499 247.138 36.3797C247.044 36.2684 246.99 36.0389 247.031 35.9205C247.079 35.7786 247.206 35.7952 247.3 35.9065C247.417 36.0258 247.447 36.2473 247.407 36.3656ZM223.471 29.1136C223.241 29.2465 222.924 29.3235 222.782 29.2752C222.64 29.2269 222.791 29.0934 223.092 28.9847C223.838 28.7365 224.003 28.7929 223.471 29.1136ZM234.813 55.6117C234.447 55.8307 233.71 56.0552 233.204 56.1468C232.365 56.2837 232.428 56.2525 233.665 55.7229C235.149 55.0922 235.963 55.0263 234.813 55.6117Z" fill="#586AEA"/>
<path d="M238.332 34.015C238.006 34.1948 236.313 36.5237 234.45 39.3495C232.626 42.136 231.076 44.4343 230.98 44.4811C230.917 44.5123 229.602 43.7213 228.068 42.7234C225.046 40.7436 224.242 40.4697 223.493 41.2712C222.911 41.8919 222.957 43.149 223.569 43.7537C224.158 44.3503 230.681 48.6054 231.368 48.839C231.675 48.9438 232.142 48.8914 232.436 48.7273C232.896 48.4615 240.563 37.0727 240.87 36.1735C241.104 35.4873 240.354 34.2019 239.573 33.9361C239.195 33.8072 238.625 33.8509 238.332 34.015Z" fill="#586AEA"/>
<path d="M212.929 39.1008C212.881 39.2427 212.919 39.4405 213.036 39.5598C213.154 39.679 213.21 39.5925 213.204 39.3791C213.184 38.8969 213.042 38.7696 212.929 39.1008Z" fill="#586AEA"/>
<path d="M213.258 40.6126C213.343 40.9847 214.226 44.587 215.224 48.6248C217.058 56.1697 217.344 57.1122 218.027 57.8201C218.238 58.0507 218.138 57.7259 217.81 57.1389C217.49 56.5282 216.35 52.4421 215.291 48.0403C214.224 43.6621 213.294 40.0437 213.223 40.0196C213.152 39.9954 213.166 40.2642 213.258 40.6126Z" fill="#586AEA"/>
<path d="M213.683 32.1731C213.247 32.447 213.263 32.4787 213.746 32.2999C214.229 32.1211 214.412 31.9721 214.223 31.9077C214.175 31.8916 213.922 32.0165 213.683 32.1731Z" fill="#586AEA"/>
<path d="M249.51 44.9795C249.591 45.8255 249.668 45.984 249.765 45.7001C249.814 45.5582 249.754 45.1943 249.63 44.8616C249.444 44.3231 249.444 44.3231 249.51 44.9795Z" fill="#586AEA"/>
<path d="M247.795 50.391C247.54 50.674 247.555 50.7057 247.864 50.5732C248.086 50.4639 248.222 50.2988 248.175 50.2037C248.128 50.1085 247.946 50.1786 247.795 50.391Z" fill="#586AEA"/>
<path d="M210.211 37.7792C210.122 38.0395 210.387 39.5821 210.528 39.6304C210.576 39.6464 210.579 39.2513 210.511 38.7531C210.353 37.7485 210.3 37.519 210.211 37.7792Z" fill="#586AEA"/>
<path d="M245.387 51.9485C244.055 52.525 244.015 52.5643 245.053 52.2309C246.154 51.8663 247.265 51.32 247.044 51.2712C246.988 51.2788 246.259 51.5588 245.387 51.9485Z" fill="#586AEA"/>
<path d="M250.911 53.4859C250.804 53.9516 249.666 56.0469 246.132 62.4507C239.834 73.8563 236.604 79.7562 233.944 84.6084L231.299 89.4132L230.23 89.604C229.035 89.8572 228.782 89.8239 229.156 89.5023C229.307 89.3688 229.291 89.3371 229.07 89.3673C228.896 89.4136 228.768 89.5551 228.799 89.6976C228.837 89.8164 228.535 90.0042 228.131 90.1043C227.117 90.3666 226.913 90.1914 227.817 89.8652L228.578 89.5697L227.865 89.7232C227.469 89.7997 227.112 90.0741 227.055 90.3188C226.989 90.5871 222.018 99.9618 215.983 111.14L204.985 131.511L204.339 130.155C203.988 129.402 203.764 128.744 203.859 128.697C203.946 128.674 203.846 128.349 203.651 127.992L203.26 127.358L203.532 128.031C203.881 128.942 203.605 128.822 202.901 127.79C202.096 126.591 199.583 124.204 198.072 123.214C196.404 122.144 193.825 121.266 192.03 121.183C191.248 121.154 190.355 121.062 190.071 120.965C189.803 120.9 189.573 120.954 189.627 121.104C189.658 121.247 189.531 121.23 189.319 121.079C189.138 120.912 188.988 120.887 189.019 121.029C189.05 121.172 188.573 121.406 187.963 121.568C187.322 121.746 186.33 122.174 185.727 122.55C185.146 122.933 184.591 123.167 184.513 123.087C184.442 122.984 184.157 123.045 183.911 123.226C183.482 123.476 183.498 123.508 183.981 123.329C184.251 123.236 184.456 123.253 184.408 123.395C184.311 123.679 183.542 123.998 183.432 123.776C183.386 123.681 183.148 123.758 182.886 123.907C182.449 124.181 182.465 124.212 182.925 124.026C183.67 123.777 183.518 123.99 182.269 125.017C179.072 127.574 177.726 132.134 178.718 136.962C179.184 139.234 180.953 142.794 182.497 144.615C183.21 145.465 183.679 146.179 183.521 146.257C183.394 146.32 183.433 146.36 183.631 146.321C183.797 146.299 184.694 146.842 185.591 147.543C186.951 148.588 187.62 148.948 189.702 149.657C191.856 150.39 192.4 150.496 193.911 150.403C194.884 150.338 195.738 150.391 195.856 150.51C195.973 150.63 196.021 150.646 195.966 150.495C195.904 150.368 196.373 150.079 197.054 149.862C198.536 149.389 202.024 147.064 203.387 145.626C204.829 144.11 205.792 142.219 206.139 140.197C206.296 139.274 206.39 138.302 206.344 138.049C206.268 137.653 206.34 137.598 206.647 137.782C207.387 138.245 247.867 159.081 250.16 160.178C250.751 160.459 250.828 160.696 250.897 162.12C250.933 163.559 251.081 163.899 252.357 165.734C253.139 166.845 253.662 167.789 253.519 167.82C253.377 167.851 253.469 168.199 253.743 168.557L254.197 169.239L253.925 168.566C253.63 167.805 253.907 167.767 254.313 168.513C254.672 169.163 255.594 169.557 255.881 169.179C256.105 168.912 256.057 168.896 255.55 169.066C255.249 169.175 256.432 168.495 258.194 167.589L261.409 165.91L262.976 166.735C263.842 167.214 265.103 167.855 265.788 168.168C266.466 168.504 267.963 169.225 269.057 169.809C270.208 170.385 271.185 170.771 271.297 170.677C271.408 170.583 272.297 168.984 273.26 167.093C274.246 165.21 275.722 162.358 276.556 160.767L278.08 157.852L288.277 152.819L298.506 147.77L298.493 146.26C298.479 144.987 298.324 144.512 297.55 143.377C297.033 142.646 296.698 142.004 296.793 141.957C296.865 141.902 297.045 142.069 297.202 142.307C297.334 142.537 297.476 142.665 297.5 142.594C297.524 142.523 297.274 142.094 296.969 141.674C296.578 141.118 296.444 141.046 296.568 141.378C296.839 142.131 296.517 141.916 295.813 140.884C295.5 140.407 295.298 139.916 295.401 139.845C295.513 139.751 295.498 139.561 295.389 139.418C295.232 139.259 295.2 139.275 295.238 139.473C295.33 139.9 295.235 139.868 294.536 139.287C294.245 139.055 294.016 138.951 294.047 139.094C294.077 139.236 293.91 139.417 293.664 139.518C293.418 139.619 293.237 139.61 293.277 139.492C293.309 139.397 292.842 139.529 292.239 139.825C291.644 140.098 291.191 140.419 291.206 140.53C291.244 140.649 290.99 140.853 290.649 141.001C290.308 141.149 290.062 141.171 290.095 141.076C290.135 140.958 289.668 141.089 289.065 141.386C288.47 141.659 288.016 141.98 288.031 142.09C288.046 142.201 287.752 142.444 287.339 142.647C286.634 142.935 286.578 142.943 286.629 142.485C286.647 142.2 286.639 142.224 286.549 142.563C286.468 142.879 286.205 143.185 285.959 143.287C285.563 143.442 285.563 143.363 285.907 142.82C286.115 142.442 287.174 140.425 288.257 138.337C289.347 136.226 291.264 132.547 292.531 130.152C293.798 127.757 294.953 125.456 295.122 125.038C295.26 124.636 295.483 124.369 295.554 124.472C295.891 124.877 295.728 124.425 295.244 123.521L294.698 122.569L295.047 123.48C295.225 123.964 294.983 123.591 294.468 122.623C293.478 120.727 293.343 119.731 294.342 121.523C294.802 122.42 294.779 122.333 294.257 121.151C293.572 119.677 293.268 119.177 293.577 120.127C293.662 120.42 293.544 120.301 293.326 119.857L292.913 119.056L296.19 113.172C303.041 100.845 306.575 94.3625 306.777 93.7709C306.89 93.4396 306.886 92.91 306.786 92.5853C306.523 91.8089 306.651 91.5094 307.043 92.0652C307.292 92.4937 307.324 92.4781 307.146 91.9947C307.029 91.7173 306.889 91.5109 306.793 91.5577C306.571 91.667 306.157 90.945 306.254 90.661C306.303 90.5191 306.476 90.6308 306.632 90.869C306.82 91.1706 306.821 91.0125 306.644 90.3711C306.505 89.8485 306.271 89.4517 306.152 89.4905C305.923 89.5443 305.094 87.0965 305.216 86.7415C305.272 86.655 305.459 86.9565 305.653 87.4716C306.088 88.5178 305.984 87.6634 305.557 86.5145C305.317 85.9043 305.277 85.8645 305.266 86.2834C305.269 86.9711 305.106 86.5986 304.519 84.6819C304.025 83.0345 304.005 82.5522 304.498 83.2747C304.748 83.7032 304.779 83.6875 304.617 83.2359C304.508 82.9349 304.296 82.7043 304.17 82.6876C304.02 82.663 303.895 82.4883 303.888 82.2748C303.89 82.0377 303.977 82.0145 304.126 82.1973C304.299 82.3881 304.354 82.3805 304.301 82.151C304.254 81.9768 304.113 81.8494 303.97 81.8801C303.852 81.9189 303.54 81.2845 303.293 80.4608C303.038 79.6608 302.751 78.9554 302.609 78.9071C302.49 78.8668 298.197 76.7445 293.076 74.1822C287.947 71.6435 280.747 68.056 277.091 66.2302C273.428 64.4282 268.646 62.034 266.48 60.953C264.321 59.8483 262.084 58.7431 261.517 58.4707C259.752 57.6056 251.937 53.7296 251.44 53.4814C251.173 53.3374 250.935 53.3359 250.911 53.4859ZM265.665 61.0189C269.454 62.9166 279.231 67.7775 287.4 71.8534C296.539 76.4177 302.328 79.4191 302.5 79.689C302.774 80.1255 306.291 92.0999 306.434 93.0731C306.479 93.4054 306.005 94.4853 304.931 96.4704C304.05 98.0457 300.139 105.166 296.236 112.263C292.333 119.361 288.969 125.267 288.794 125.393C288.429 125.612 293.524 125.154 294.167 124.898C294.373 124.836 294.563 124.821 294.586 124.908C294.641 124.98 293.076 128.092 291.111 131.834C289.17 135.584 286.949 139.846 286.179 141.328L284.807 144.03L274.586 149.055C268.984 151.849 264.286 154.08 264.153 154.008C264.034 153.967 261.646 148.664 258.846 142.243C252.797 128.324 251.381 125.121 251.121 125.032C251.003 124.992 251.111 125.293 251.338 125.714C251.572 126.11 254.496 132.706 257.816 140.387L263.913 154.322L262.921 154.83L261.929 155.337L261.894 156.831C261.86 158.246 261.93 158.428 263.675 160.897C264.669 162.319 265.561 163.494 265.68 163.535C265.774 163.567 266.25 163.412 266.718 163.201L267.591 162.812L268.532 164.928C269.823 167.877 270.874 170.058 270.564 169.186C270.441 168.774 269.764 167.197 269.08 165.643C268.419 164.098 267.923 162.767 267.979 162.68C268.163 162.452 277.272 157.973 277.343 158.076C277.35 158.132 276.01 160.819 274.326 164.049C272.642 167.279 271.246 169.973 271.222 170.044C271.141 170.281 269.786 169.687 265.8 167.67C263.57 166.541 261.594 165.445 261.406 165.223C261.123 164.889 261.044 164.888 261.066 165.212C261.064 165.45 259.992 166.115 258.087 167.051C254.858 168.619 254.755 168.611 255.005 166.794C255.122 165.989 255.265 165.879 258.027 164.521C260.368 163.39 260.938 163.188 261.031 163.536C261.084 163.766 261.186 163.854 261.227 163.735C261.38 163.286 260.992 162.335 260.147 161.175C259.7 160.548 259.309 160.071 259.284 160.142C259.268 160.189 259.659 160.824 260.152 161.547L261.059 162.833L258.108 164.284C256.457 165.096 255.053 165.727 254.935 165.687C254.674 165.598 251.372 160.961 251.413 160.763C251.437 160.692 252.85 159.958 254.579 159.147C256.285 158.328 257.635 157.626 257.54 157.593C257.469 157.569 256.096 158.185 254.509 158.965L251.589 160.401L245.784 157.447C240.742 154.885 230.092 149.41 211.117 139.621L206.312 137.139L206.136 136.261C206.005 135.794 205.953 135.327 205.977 135.256C206.002 135.185 215.221 133.094 226.474 130.613C237.72 128.156 246.789 126.04 246.663 125.944C246.522 125.817 246.308 125.824 246.165 125.933C245.879 126.153 206.693 134.786 206.163 134.712C205.926 134.71 205.653 134.195 205.477 133.395L205.155 132.097L216.129 111.718C222.141 100.532 227.166 91.2285 227.302 91.0634C227.454 90.8509 227.947 91.5734 228.827 93.326C230.846 97.315 246.058 125.474 246.161 125.404C246.224 125.373 233.339 101.228 230.296 95.7543L229.305 93.9377L240.18 74.1589C246.15 63.2492 251.126 54.2461 251.222 54.1203C251.35 53.9788 252.572 54.5004 255.1 55.7577C257.109 56.7587 261.867 59.1448 265.665 61.0189ZM306.392 90.2588C306.343 90.4007 306.24 90.3922 306.123 90.2729C306.029 90.1616 305.975 89.932 306.015 89.8137C306.064 89.6717 306.19 89.6883 306.284 89.7996C306.402 89.9189 306.432 90.1405 306.392 90.2588ZM296.239 142.112C297.107 143.358 297.811 144.469 297.826 144.58C297.817 144.683 290.579 148.32 281.723 152.674L265.607 160.578L264.199 158.514C263.432 157.355 262.634 156.211 262.438 155.933C262.094 155.473 262.967 155.004 278.108 147.56C286.932 143.222 294.256 139.719 294.398 139.768C294.516 139.808 295.346 140.857 296.239 142.112ZM293.204 139.705C293.188 139.752 292.72 139.963 292.18 140.228L291.165 140.648L292.118 140.101C293.023 139.617 293.269 139.516 293.204 139.705ZM290.03 141.265C290.014 141.313 289.546 141.523 289.006 141.788L287.991 142.209L288.944 141.662C289.849 141.177 290.095 141.076 290.03 141.265ZM298.049 146.4L298.018 147.419L281.957 155.316C264.912 163.696 265.522 163.455 265.798 161.488C265.899 160.651 266.026 160.588 281.896 152.786C290.689 148.463 297.909 145.031 297.972 145.158C298.034 145.285 298.062 145.823 298.049 146.4ZM196.892 126.668C199.601 128.172 201.345 130.8 201.71 133.908C202.073 137.254 200.297 140.057 197.534 140.49C196.616 140.626 195.023 140.11 194.773 139.603C194.633 139.317 194.428 139.3 193.896 139.542C191.365 140.688 188.747 138.766 188.328 135.506C187.984 132.722 189.404 129.956 191.408 129.503C192.493 129.265 194.284 129.822 194.824 130.56C195.184 131.053 195.231 131.069 195.472 130.596C195.649 130.233 195.95 130.125 196.605 130.216C197.087 130.274 197.545 130.404 197.607 130.531C197.67 130.657 197.522 132.403 197.278 134.433C197.034 136.463 196.902 138.241 196.98 138.4C197.448 139.351 199.253 137.932 199.883 136.086C200.667 133.791 200.044 131.439 198.114 129.356C197.008 128.187 193.419 126.939 191.583 127.132C190.001 127.28 188.08 128.343 187.487 129.383C185.604 132.73 186.14 137.35 188.682 139.959C191.571 142.871 197.446 143.841 200.094 141.811C201.056 141.082 202.307 140.9 202.572 141.439C202.813 141.97 201.356 143.376 199.96 143.984C197.628 145.012 196.039 144.947 192.387 143.729C189.382 142.706 189.272 142.642 187.992 141.361C186.375 139.754 185.145 137.091 184.808 134.519C184.606 133.024 184.682 132.337 185.137 130.696C186.07 127.421 187.599 125.961 190.583 125.577C193.234 125.238 194.829 125.517 196.892 126.668Z" fill="#586AEA"/>
<path d="M255.363 65.2767C255.195 65.5364 254.858 66.2141 254.64 66.7739L254.229 67.8226L261.225 71.3139C265.085 73.2358 268.583 74.9815 269.017 75.1819L269.82 75.5349L270.589 74.2118C270.998 73.4793 271.327 72.8253 271.296 72.7619C271.241 72.6904 267.98 71.0253 264.056 69.0556C260.11 67.0778 256.612 65.3321 256.281 65.1403C255.769 64.8603 255.603 64.883 255.363 65.2767Z" fill="#586AEA"/>
<path d="M251.868 71.7202C251.429 72.3103 250.387 74.2007 250.434 74.2959C250.488 74.4464 274.997 86.6741 275.612 86.8836C276.014 87.0206 276.158 86.8318 277.144 85.0279L277.568 84.2481L265.192 78.1058C258.401 74.7106 252.65 71.828 252.438 71.6765C252.241 71.5566 251.972 71.5707 251.868 71.7202Z" fill="#586AEA"/>
<path d="M298.454 87.9789C298.414 88.0972 298.545 88.4852 298.763 88.8501L299.13 89.4766L298.859 88.7242C298.712 88.3045 298.581 87.9165 298.574 87.8611C298.542 87.7977 298.503 87.837 298.454 87.9789Z" fill="#586AEA"/>
<path d="M248.372 96.6529C246.898 97.181 246.796 99.2592 248.262 99.7586C249.351 100.129 250.831 98.8106 250.538 97.7337C250.454 97.3617 249.725 96.5587 249.394 96.446C249.275 96.4057 248.824 96.4898 248.372 96.6529Z" fill="#586AEA"/>
<path d="M244.871 102.962C243.419 103.656 243.397 105.498 244.84 105.989C245.668 106.271 246.692 105.748 246.975 104.92C247.241 104.139 247.149 103.791 246.592 103.179C245.988 102.55 245.736 102.517 244.871 102.962Z" fill="#586AEA"/>
<path d="M241.877 109.022C240.239 109.256 239.803 111.459 241.269 112.116C243.049 112.934 244.594 110.343 242.998 109.218C242.762 109.059 242.264 108.969 241.877 109.022Z" fill="#586AEA"/>
<path d="M279.724 126.583C279.186 126.691 278.861 126.791 278.98 126.832C279.122 126.88 279.659 126.852 280.197 126.744C280.735 126.637 281.084 126.545 280.942 126.496C280.824 126.456 280.262 126.476 279.724 126.583Z" fill="#586AEA"/>
<path d="M268.13 128.05C267.434 128.157 266.99 128.296 267.109 128.336C267.25 128.385 267.907 128.318 268.603 128.211C269.299 128.105 269.766 127.974 269.625 127.925C269.506 127.885 268.826 127.944 268.13 128.05Z" fill="#586AEA"/>
<path d="M249.022 125.533C248.483 125.719 248.475 125.743 249.084 125.66C249.416 125.614 249.709 125.529 249.725 125.482C249.79 125.292 249.655 125.299 249.022 125.533Z" fill="#586AEA"/>
<path d="M247.597 125.84C247.058 126.026 247.05 126.05 247.659 125.967C247.991 125.921 248.284 125.836 248.3 125.789C248.364 125.599 248.23 125.606 247.597 125.84Z" fill="#586AEA"/>
<path d="M255.982 129.593C255.443 129.7 255.119 129.801 255.237 129.841C255.379 129.889 255.916 129.861 256.455 129.754C256.993 129.647 257.341 129.554 257.199 129.506C257.081 129.465 256.52 129.486 255.982 129.593Z" fill="#586AEA"/>
<path d="M257.877 158.078C257.861 158.125 257.985 158.379 258.165 158.625C258.414 159.053 258.446 159.038 258.268 158.554C258.09 158.071 257.941 157.889 257.877 158.078Z" fill="#586AEA"/>
<path d="M258.58 159.11C258.564 159.157 258.689 159.411 258.868 159.657C259.118 160.085 259.149 160.07 258.972 159.587C258.794 159.103 258.645 158.921 258.58 159.11Z" fill="#586AEA"/>
<path d="M192.027 131.404C190.574 132.177 190.074 135.652 191.145 137.311C191.7 138.16 191.968 138.304 192.957 138.192C193.97 138.088 194.706 136.938 194.941 135.09C195.269 132.429 193.741 130.482 192.027 131.404Z" fill="#586AEA"/>
<path d="M253.901 54.3193C254.027 54.4149 254.31 54.5114 254.492 54.5204C254.658 54.4977 254.556 54.4102 254.225 54.2975C253.894 54.1849 253.76 54.192 253.901 54.3193Z" fill="#586AEA"/>
<path d="M255.477 55.1199C255.603 55.2154 255.886 55.312 256.068 55.321C256.234 55.2983 256.132 55.2108 255.801 55.0981C255.47 54.9855 255.336 54.9926 255.477 55.1199Z" fill="#586AEA"/>
<path d="M256.934 55.8801C257.13 55.9999 257.461 56.1125 257.643 56.1215C257.809 56.0988 257.659 55.9952 257.258 55.8584C256.88 55.7297 256.722 55.7287 256.934 55.8801Z" fill="#586AEA"/>
<path d="M258.628 56.721C258.753 56.8166 259.037 56.9132 259.219 56.9222C259.385 56.8995 259.283 56.8119 258.952 56.6993C258.621 56.5866 258.487 56.5937 258.628 56.721Z" fill="#586AEA"/>
<path d="M268.79 61.7662C268.916 61.8618 269.2 61.9583 269.381 61.9673C269.547 61.9446 269.445 61.8571 269.114 61.7444C268.784 61.6318 268.649 61.6389 268.79 61.7662Z" fill="#586AEA"/>
<path d="M270.484 62.607C270.681 62.7268 271.011 62.8394 271.193 62.8484C271.359 62.8257 271.21 62.7221 270.808 62.5853C270.43 62.4566 270.272 62.4556 270.484 62.607Z" fill="#586AEA"/>
<path d="M272.178 63.4479C272.304 63.5435 272.587 63.64 272.769 63.649C272.935 63.6263 272.833 63.5388 272.502 63.4261C272.171 63.3135 272.037 63.3206 272.178 63.4479Z" fill="#586AEA"/>
<path d="M273.635 64.2082C273.832 64.3279 274.163 64.4405 274.344 64.4495C274.51 64.4268 274.361 64.3232 273.959 64.1864C273.581 64.0577 273.423 64.0567 273.635 64.2082Z" fill="#586AEA"/>
<path d="M275.329 65.0491C275.455 65.1446 275.738 65.2412 275.92 65.2502C276.086 65.2275 275.984 65.14 275.653 65.0273C275.322 64.9147 275.188 64.9218 275.329 65.0491Z" fill="#586AEA"/>
<path d="M287.304 70.9754C287.43 71.0709 287.713 71.1675 287.895 71.1765C288.061 71.1538 287.959 71.0663 287.628 70.9536C287.297 70.841 287.163 70.8481 287.304 70.9754Z" fill="#586AEA"/>
<path d="M288.761 71.7356C288.957 71.8554 289.288 71.968 289.47 71.977C289.636 71.9543 289.487 71.8507 289.085 71.7139C288.707 71.5852 288.549 71.5842 288.761 71.7356Z" fill="#586AEA"/>
<path d="M247.863 58.312C247.774 58.5722 247.821 58.6673 247.956 58.5022C248.084 58.3607 248.133 58.1397 248.086 58.0446C248.048 57.9259 247.928 58.0437 247.863 58.312Z" fill="#586AEA"/>
<path d="M290.455 72.5765C290.581 72.6721 290.864 72.7687 291.046 72.7777C291.212 72.755 291.11 72.6674 290.779 72.5548C290.448 72.4421 290.314 72.4492 290.455 72.5765Z" fill="#586AEA"/>
<path d="M236.643 55.1255C236.523 55.2433 236.61 55.2991 236.823 55.2925C237.305 55.2717 237.433 55.1303 237.102 55.0176C236.96 54.9694 236.762 55.0077 236.643 55.1255Z" fill="#586AEA"/>
<path d="M247.214 59.5172C247.101 59.8485 247.107 59.9828 247.235 59.8414C247.331 59.7155 247.428 59.4316 247.437 59.2499C247.414 59.0838 247.327 59.186 247.214 59.5172Z" fill="#586AEA"/>
<path d="M303.131 78.9264C303.114 78.9737 303.239 79.2273 303.419 79.4734C303.668 79.9017 303.7 79.886 303.522 79.4029C303.344 78.9198 303.195 78.7371 303.131 78.9264Z" fill="#586AEA"/>
<path d="M246.501 60.7537C246.412 61.0139 246.459 61.109 246.594 60.9439C246.722 60.8024 246.771 60.5815 246.724 60.4863C246.685 60.3676 246.566 60.4854 246.501 60.7537Z" fill="#586AEA"/>
<path d="M245.86 61.8562C245.771 62.1165 245.818 62.2116 245.953 62.0464C246.081 61.905 246.13 61.684 246.083 61.5889C246.045 61.4701 245.925 61.5879 245.86 61.8562Z" fill="#586AEA"/>
<path d="M230.57 57.2048C229.809 57.5795 229.801 57.6032 230.459 57.378C231.718 56.9352 231.781 56.904 231.616 56.8477C231.521 56.8155 231.07 56.9787 230.57 57.2048Z" fill="#586AEA"/>
<path d="M227.328 58.346L226.693 58.7373L227.39 58.4729C228.032 58.216 228.238 58.075 228.049 58.0106C228.002 57.9945 227.685 58.1506 227.328 58.346Z" fill="#586AEA"/>
<path d="M225.822 58.8897L225.187 59.2809L225.884 59.0165C226.526 58.7596 226.732 58.6186 226.543 58.5542C226.496 58.5381 226.179 58.6943 225.822 58.8897Z" fill="#586AEA"/>
<path d="M223.126 59.8209L222.492 60.2122L223.189 59.9478C223.83 59.6909 224.037 59.5499 223.848 59.4855C223.8 59.4694 223.483 59.6255 223.126 59.8209Z" fill="#586AEA"/>
<path d="M240.963 70.8598C240.85 71.191 240.857 71.3254 240.984 71.184C241.08 71.0581 241.177 70.7742 241.186 70.5925C241.164 70.4264 241.076 70.5286 240.963 70.8598Z" fill="#586AEA"/>
<path d="M240.241 72.199C240.128 72.5302 240.135 72.6646 240.263 72.5231C240.358 72.3973 240.455 72.1134 240.465 71.9317C240.442 71.7656 240.355 71.8678 240.241 72.199Z" fill="#586AEA"/>
<path d="M239.529 73.4355C239.44 73.6957 239.487 73.7908 239.622 73.6257C239.75 73.4842 239.799 73.2632 239.752 73.1681C239.714 73.0494 239.594 73.1672 239.529 73.4355Z" fill="#586AEA"/>
<path d="M303.284 101.06C303.171 101.392 303.178 101.526 303.306 101.385C303.401 101.259 303.498 100.975 303.508 100.793C303.485 100.627 303.398 100.729 303.284 101.06Z" fill="#586AEA"/>
<path d="M302.563 102.4C302.45 102.731 302.457 102.865 302.584 102.724C302.68 102.598 302.777 102.314 302.786 102.132C302.764 101.966 302.676 102.068 302.563 102.4Z" fill="#586AEA"/>
<path d="M301.85 103.636C301.761 103.896 301.808 103.991 301.943 103.826C302.071 103.685 302.12 103.464 302.073 103.369C302.034 103.25 301.915 103.368 301.85 103.636Z" fill="#586AEA"/>
<path d="M234.64 82.3363C234.552 82.5966 234.598 82.6917 234.734 82.5266C234.861 82.3851 234.91 82.1641 234.864 82.069C234.825 81.9502 234.706 82.0681 234.64 82.3363Z" fill="#586AEA"/>
<path d="M233.919 83.6755C233.83 83.9358 233.877 84.0309 234.013 83.8657C234.14 83.7243 234.189 83.5033 234.142 83.4082C234.104 83.2894 233.984 83.4072 233.919 83.6755Z" fill="#586AEA"/>
<path d="M233.27 84.8808C233.157 85.212 233.164 85.3464 233.291 85.2049C233.387 85.0791 233.484 84.7952 233.493 84.6135C233.471 84.4474 233.383 84.5496 233.27 84.8808Z" fill="#586AEA"/>
<path d="M232.638 85.8806C232.549 86.1408 232.596 86.236 232.731 86.0708C232.859 85.9293 232.908 85.7084 232.861 85.6133C232.823 85.4945 232.703 85.6123 232.638 85.8806Z" fill="#586AEA"/>
<path d="M297.602 111.434C297.513 111.695 297.56 111.79 297.696 111.625C297.823 111.483 297.872 111.262 297.826 111.167C297.787 111.048 297.668 111.166 297.602 111.434Z" fill="#586AEA"/>
<path d="M296.962 112.537C296.873 112.797 296.919 112.892 297.055 112.727C297.182 112.586 297.232 112.365 297.185 112.27C297.146 112.151 297.027 112.269 296.962 112.537Z" fill="#586AEA"/>
<path d="M296.241 113.876C296.152 114.136 296.198 114.231 296.334 114.066C296.461 113.925 296.51 113.704 296.464 113.609C296.425 113.49 296.306 113.608 296.241 113.876Z" fill="#586AEA"/>
<path d="M295.591 115.081C295.478 115.413 295.485 115.547 295.612 115.405C295.708 115.28 295.805 114.996 295.814 114.814C295.792 114.648 295.704 114.75 295.591 115.081Z" fill="#586AEA"/>
<path d="M225.946 91.6318C225.833 91.963 225.84 92.0974 225.967 91.9559C226.063 91.83 226.16 91.5461 226.169 91.3644C226.147 91.1983 226.059 91.3005 225.946 91.6318Z" fill="#586AEA"/>
<path d="M225.265 92.8527C225.136 93.2312 225.134 93.3893 225.286 93.1768C225.406 92.98 225.519 92.6488 225.528 92.4671C225.506 92.301 225.402 92.4505 225.265 92.8527Z" fill="#586AEA"/>
<path d="M224.512 94.2074C224.423 94.4677 224.47 94.5628 224.605 94.3976C224.733 94.2562 224.782 94.0352 224.735 93.9401C224.697 93.8213 224.577 93.9391 224.512 94.2074Z" fill="#586AEA"/>
<path d="M294.803 126.593C294.714 126.854 294.761 126.949 294.896 126.784C295.024 126.642 295.073 126.421 295.026 126.326C294.988 126.207 294.868 126.325 294.803 126.593Z" fill="#586AEA"/>
<path d="M294.154 127.799C294.04 128.13 294.047 128.264 294.175 128.123C294.271 127.997 294.367 127.713 294.377 127.531C294.354 127.365 294.267 127.467 294.154 127.799Z" fill="#586AEA"/>
<path d="M219.381 103.818C219.292 104.078 219.339 104.174 219.474 104.008C219.602 103.867 219.651 103.646 219.604 103.551C219.566 103.432 219.446 103.55 219.381 103.818Z" fill="#586AEA"/>
<path d="M293.392 129.256C293.263 129.635 293.261 129.793 293.413 129.58C293.533 129.383 293.646 129.052 293.655 128.871C293.633 128.704 293.529 128.854 293.392 129.256Z" fill="#586AEA"/>
<path d="M218.772 104.905C218.643 105.284 218.642 105.442 218.793 105.229C218.913 105.032 219.026 104.701 219.036 104.52C219.013 104.353 218.91 104.503 218.772 104.905Z" fill="#586AEA"/>
<path d="M292.638 130.611C292.55 130.871 292.596 130.966 292.732 130.801C292.859 130.66 292.908 130.439 292.862 130.344C292.823 130.225 292.704 130.343 292.638 130.611Z" fill="#586AEA"/>
<path d="M218.01 106.363C217.897 106.694 217.904 106.828 218.031 106.687C218.127 106.561 218.224 106.277 218.233 106.095C218.211 105.929 218.123 106.031 218.01 106.363Z" fill="#586AEA"/>
<path d="M217.369 107.465C217.256 107.796 217.263 107.931 217.391 107.789C217.486 107.663 217.583 107.38 217.593 107.198C217.57 107.032 217.483 107.134 217.369 107.465Z" fill="#586AEA"/>
<path d="M298.385 143.872C298.368 143.92 298.493 144.173 298.673 144.419C298.922 144.848 298.954 144.832 298.776 144.349C298.598 143.866 298.449 143.683 298.385 143.872Z" fill="#586AEA"/>
<path d="M287.184 141.168C287.095 141.428 287.142 141.524 287.278 141.358C287.405 141.217 287.454 140.996 287.408 140.901C287.369 140.782 287.25 140.9 287.184 141.168Z" fill="#586AEA"/>
<path d="M212.239 117.076C212.125 117.407 212.132 117.542 212.26 117.4C212.355 117.274 212.452 116.99 212.462 116.809C212.439 116.643 212.352 116.745 212.239 117.076Z" fill="#586AEA"/>
<path d="M211.558 118.297C211.429 118.675 211.427 118.833 211.579 118.621C211.699 118.424 211.812 118.093 211.821 117.911C211.799 117.745 211.695 117.895 211.558 118.297Z" fill="#586AEA"/>
<path d="M288.236 153.095C279.634 157.324 278.205 158.105 278.034 158.681C277.864 159.336 277.864 159.336 278.152 158.801C278.352 158.446 281.909 156.54 288.519 153.271C294.042 150.555 298.51 148.3 298.392 148.259C298.297 148.227 293.719 150.419 288.236 153.095Z" fill="#586AEA"/>
<path d="M210.877 119.518C210.764 119.849 210.77 119.983 210.898 119.842C210.994 119.716 211.091 119.432 211.1 119.25C211.077 119.084 210.99 119.186 210.877 119.518Z" fill="#586AEA"/>
<path d="M199.962 124.254C200.111 124.436 200.354 124.651 200.472 124.691C200.614 124.74 200.583 124.597 200.435 124.414C200.286 124.232 200.067 124.025 199.925 123.977C199.807 123.937 199.813 124.071 199.962 124.254Z" fill="#586AEA"/>
<path d="M186.144 121.714L185.509 122.106L186.206 121.841C186.847 121.584 187.054 121.443 186.865 121.379C186.818 121.363 186.5 121.519 186.144 121.714Z" fill="#586AEA"/>
<path d="M205.755 129.026C205.666 129.286 205.712 129.381 205.848 129.216C205.975 129.074 206.024 128.853 205.978 128.758C205.939 128.64 205.82 128.757 205.755 129.026Z" fill="#586AEA"/>
<path d="M204.19 128.889C204.166 128.96 204.375 129.428 204.624 129.935C205.045 130.712 205.123 130.792 205.252 130.413C205.333 130.176 205.303 130.034 205.184 130.073C205.081 130.143 204.806 129.865 204.596 129.477C204.386 129.088 204.206 128.842 204.19 128.889Z" fill="#586AEA"/>
<path d="M206.545 139.86C206.456 140.12 206.502 140.216 206.638 140.05C206.765 139.909 206.815 139.688 206.768 139.593C206.729 139.474 206.61 139.592 206.545 139.86Z" fill="#586AEA"/>
<path d="M213.527 142C213.723 142.119 214.054 142.232 214.235 142.241C214.402 142.218 214.252 142.115 213.851 141.978C213.472 141.849 213.315 141.848 213.527 142Z" fill="#586AEA"/>
<path d="M215.102 142.8C215.298 142.92 215.629 143.033 215.811 143.042C215.977 143.019 215.827 142.915 215.426 142.778C215.048 142.65 214.89 142.649 215.102 142.8Z" fill="#586AEA"/>
<path d="M216.559 143.561C216.7 143.688 216.921 143.737 217.016 143.69C217.135 143.651 217.017 143.532 216.749 143.467C216.489 143.378 216.394 143.425 216.559 143.561Z" fill="#586AEA"/>
<path d="M177.984 131.456C177.895 131.716 177.941 131.811 178.077 131.646C178.204 131.505 178.254 131.284 178.207 131.189C178.168 131.07 178.049 131.188 177.984 131.456Z" fill="#586AEA"/>
<path d="M206.15 141.945C205.948 142.536 205.915 142.789 206.067 142.497C206.211 142.229 206.373 141.756 206.43 141.433C206.48 141.133 206.352 141.353 206.15 141.945Z" fill="#586AEA"/>
<path d="M228.69 149.804C228.815 149.9 229.099 149.996 229.281 150.005C229.447 149.982 229.345 149.895 229.014 149.782C228.683 149.67 228.549 149.677 228.69 149.804Z" fill="#586AEA"/>
<path d="M230.029 150.524C230.154 150.62 230.438 150.716 230.619 150.725C230.786 150.702 230.684 150.615 230.353 150.502C230.022 150.39 229.888 150.397 230.029 150.524Z" fill="#586AEA"/>
<path d="M231.604 151.325C231.746 151.452 231.966 151.501 232.061 151.454C232.18 151.415 232.063 151.296 231.795 151.231C231.535 151.142 231.44 151.189 231.604 151.325Z" fill="#586AEA"/>
<path d="M232.943 152.045C233.084 152.172 233.305 152.221 233.4 152.174C233.519 152.135 233.401 152.016 233.133 151.951C232.874 151.862 232.778 151.909 232.943 152.045Z" fill="#586AEA"/>
<path d="M205.171 143.883C205.082 144.143 205.129 144.238 205.264 144.073C205.392 143.932 205.441 143.711 205.394 143.615C205.356 143.497 205.236 143.614 205.171 143.883Z" fill="#586AEA"/>
<path d="M242.396 156.848C242.522 156.944 242.805 157.04 242.987 157.049C243.153 157.027 243.051 156.939 242.72 156.826C242.389 156.714 242.255 156.721 242.396 156.848Z" fill="#586AEA"/>
<path d="M243.972 157.649C244.097 157.744 244.381 157.841 244.562 157.85C244.728 157.827 244.626 157.74 244.296 157.627C243.965 157.514 243.83 157.521 243.972 157.649Z" fill="#586AEA"/>
<path d="M245.428 158.409C245.625 158.529 245.956 158.641 246.137 158.65C246.303 158.628 246.154 158.524 245.752 158.387C245.374 158.258 245.216 158.258 245.428 158.409Z" fill="#586AEA"/>
<path d="M246.886 159.169C247.027 159.297 247.248 159.345 247.343 159.298C247.461 159.26 247.344 159.14 247.076 159.076C246.816 158.987 246.721 159.034 246.886 159.169Z" fill="#586AEA"/>
<path d="M272.588 169.215C272.499 169.475 272.546 169.57 272.681 169.405C272.809 169.264 272.858 169.043 272.811 168.948C272.773 168.829 272.653 168.947 272.588 169.215Z" fill="#586AEA"/>
<path d="M178.51 138.344C178.641 138.811 178.858 139.334 178.975 139.453C179.108 139.604 179.024 139.232 178.831 138.639C178.384 137.324 178.148 137.086 178.51 138.344Z" fill="#586AEA"/>
<path d="M258.629 167.632C257.192 168.357 256.104 168.991 256.223 169.031C256.317 169.063 257.15 168.713 258 168.236C258.865 167.791 260.103 167.183 260.745 166.926C261.379 166.693 261.761 166.426 261.587 166.394C261.422 166.337 260.097 166.89 258.629 167.632Z" fill="#586AEA"/>
<path d="M262.64 167.175C262.782 167.302 263.002 167.351 263.098 167.304C263.216 167.265 263.099 167.146 262.831 167.081C262.571 166.993 262.476 167.04 262.64 167.175Z" fill="#586AEA"/>
<path d="M201.927 147.427C200.942 147.99 200.347 148.421 200.465 148.461C200.536 148.485 201.06 148.188 201.663 147.812C202.814 147.069 203.006 146.817 201.927 147.427Z" fill="#586AEA"/>
<path d="M250.951 164.436C250.935 164.484 251.059 164.737 251.239 164.983C251.488 165.412 251.52 165.396 251.342 164.913C251.164 164.43 251.016 164.247 250.951 164.436Z" fill="#586AEA"/>
<path d="M179.635 141.237C179.931 141.839 180.204 142.355 180.275 142.379C180.346 142.403 180.168 141.92 179.872 141.317C179.576 140.715 179.303 140.199 179.233 140.175C179.162 140.151 179.34 140.634 179.635 141.237Z" fill="#586AEA"/>
<path d="M251.88 165.968C252.028 166.308 252.191 166.602 252.262 166.626C252.333 166.65 252.264 166.389 252.116 166.048C251.969 165.707 251.805 165.414 251.735 165.39C251.664 165.366 251.733 165.627 251.88 165.968Z" fill="#586AEA"/>
<path d="M198.351 149.775L197.24 150.401L198.413 149.902C199.04 149.614 199.579 149.348 199.595 149.301C199.66 149.112 199.406 149.236 198.351 149.775Z" fill="#586AEA"/>
<path d="M181.372 143.888C181.347 143.959 181.558 144.269 181.808 144.618C182.09 144.951 182.255 145.087 182.232 144.921C182.156 144.604 181.428 143.723 181.372 143.888Z" fill="#586AEA"/>
<path d="M194.628 150.7C194.367 150.769 194.311 150.856 194.477 150.912C194.618 150.961 194.872 150.915 194.983 150.821C195.269 150.601 195.174 150.569 194.628 150.7Z" fill="#586AEA"/>
<path d="M185.357 148.071C185.577 148.278 185.923 148.502 186.112 148.566C186.324 148.638 186.333 148.536 186.066 148.313C185.847 148.106 185.501 147.883 185.312 147.818C185.099 147.746 185.09 147.849 185.357 148.071Z" fill="#586AEA"/>
<path d="M192.375 150.725C192.027 150.739 191.971 150.825 192.184 150.898C192.373 150.962 192.783 150.996 193.084 150.966C193.431 150.953 193.487 150.866 193.275 150.794C193.086 150.729 192.675 150.695 192.375 150.725Z" fill="#586AEA"/>
<path d="M186.711 148.981C186.852 149.109 187.073 149.157 187.168 149.111C187.287 149.072 187.169 148.952 186.901 148.888C186.641 148.799 186.546 148.846 186.711 148.981Z" fill="#586AEA"/>
<path d="M188.05 149.701C188.191 149.829 188.412 149.877 188.507 149.83C188.625 149.792 188.508 149.672 188.24 149.608C187.98 149.519 187.885 149.566 188.05 149.701Z" fill="#586AEA"/>
</g>
<defs>
<filter id="filter0_d_2912_1433" x="311.281" y="141.147" width="35.5331" height="31.174" filterUnits="userSpaceOnUse" color-interpolation-filters="sRGB">
<feFlood flood-opacity="0" result="BackgroundImageFix"/>
<feColorMatrix in="SourceAlpha" type="matrix" values="0 0 0 0 0 0 0 0 0 0 0 0 0 0 0 0 0 0 127 0" result="hardAlpha"/>
<feOffset dy="3.46296"/>
<feGaussianBlur stdDeviation="4.3287"/>
<feColorMatrix type="matrix" values="0 0 0 0 0.267483 0 0 0 0 0.281291 0 0 0 0 0.645833 0 0 0 0.4 0"/>
<feBlend mode="normal" in2="BackgroundImageFix" result="effect1_dropShadow_2912_1433"/>
<feBlend mode="normal" in="SourceGraphic" in2="effect1_dropShadow_2912_1433" result="shape"/>
</filter>
<linearGradient id="paint0_linear_2912_1433" x1="124.253" y1="-264.681" x2="124.253" y2="289.293" gradientUnits="userSpaceOnUse">
<stop stop-color="#586AEA" stop-opacity="0.1"/>
<stop offset="1" stop-color="#323C84" stop-opacity="0.6"/>
</linearGradient>
<linearGradient id="paint1_linear_2912_1433" x1="141.25" y1="-246.963" x2="141.25" y2="271.582" gradientUnits="userSpaceOnUse">
<stop stop-color="#586AEA" stop-opacity="0.1"/>
<stop offset="1" stop-color="#323C84" stop-opacity="0.6"/>
</linearGradient>
<linearGradient id="paint2_linear_2912_1433" x1="158.246" y1="-229.22" x2="158.246" y2="253.901" gradientUnits="userSpaceOnUse">
<stop stop-color="#586AEA" stop-opacity="0.1"/>
<stop offset="1" stop-color="#323C84" stop-opacity="0.6"/>
</linearGradient>
<linearGradient id="paint3_linear_2912_1433" x1="175.246" y1="-211.532" x2="175.246" y2="236.143" gradientUnits="userSpaceOnUse">
<stop stop-color="#586AEA" stop-opacity="0.1"/>
<stop offset="1" stop-color="#323C84" stop-opacity="0.6"/>
</linearGradient>
<linearGradient id="paint4_linear_2912_1433" x1="192.242" y1="-193.788" x2="192.242" y2="218.432" gradientUnits="userSpaceOnUse">
<stop stop-color="#586AEA" stop-opacity="0.1"/>
<stop offset="1" stop-color="#323C84" stop-opacity="0.6"/>
</linearGradient>
<linearGradient id="paint5_linear_2912_1433" x1="209.236" y1="-176.098" x2="209.236" y2="200.719" gradientUnits="userSpaceOnUse">
<stop stop-color="#586AEA" stop-opacity="0.1"/>
<stop offset="1" stop-color="#323C84" stop-opacity="0.6"/>
</linearGradient>
<linearGradient id="paint6_linear_2912_1433" x1="226.241" y1="-158.36" x2="226.241" y2="182.982" gradientUnits="userSpaceOnUse">
<stop stop-color="#586AEA" stop-opacity="0.1"/>
<stop offset="1" stop-color="#323C84" stop-opacity="0.6"/>
</linearGradient>
<linearGradient id="paint7_linear_2912_1433" x1="243.246" y1="-140.633" x2="243.246" y2="165.315" gradientUnits="userSpaceOnUse">
<stop stop-color="#586AEA" stop-opacity="0.1"/>
<stop offset="1" stop-color="#323C84" stop-opacity="0.6"/>
</linearGradient>
<linearGradient id="paint8_linear_2912_1433" x1="260.216" y1="-122.934" x2="260.216" y2="147.564" gradientUnits="userSpaceOnUse">
<stop stop-color="#586AEA" stop-opacity="0.1"/>
<stop offset="1" stop-color="#323C84" stop-opacity="0.6"/>
</linearGradient>
<linearGradient id="paint9_linear_2912_1433" x1="277.218" y1="-105.228" x2="277.218" y2="129.797" gradientUnits="userSpaceOnUse">
<stop stop-color="#586AEA" stop-opacity="0.1"/>
<stop offset="1" stop-color="#323C84" stop-opacity="0.6"/>
</linearGradient>
<linearGradient id="paint10_linear_2912_1433" x1="294.216" y1="-87.5073" x2="294.216" y2="112.145" gradientUnits="userSpaceOnUse">
<stop stop-color="#586AEA" stop-opacity="0.1"/>
<stop offset="1" stop-color="#323C84" stop-opacity="0.6"/>
</linearGradient>
<clipPath id="clip0_2912_1433">
<rect width="498.667" height="182.671" fill="white" transform="translate(0 18)"/>
</clipPath>
<clipPath id="clip1_2912_1433">
<rect width="167.218" height="160.024" fill="white" transform="matrix(0.94663 0.322322 -0.323165 0.946343 196.048 0.362213)"/>
</clipPath>
</defs>
</svg>
