<svg width="499" height="183" viewBox="0 0 499 183" fill="none" xmlns="http://www.w3.org/2000/svg">
<g clip-path="url(#clip0_2854_12568)">
<g opacity="0.1">
<path d="M314.967 -268.189C378.6 -248.85 440.507 -207.803 472.315 -152.152C504.124 -96.5009 505.85 -25.8466 483.495 34.1404C461.14 93.7419 414.709 142.683 360.111 166.757C305.94 191.224 244.029 190.832 186.419 207.791C128.812 225.168 75.5022 260.329 12.7311 268.975C-50.0395 278.052 -122.264 260.289 -171.706 218.85C-221.147 177.019 -248.233 111.106 -249.95 47.1686C-251.239 -16.7686 -227.594 -79.13 -186.324 -123.336C-145.481 -167.149 -87.4412 -192.8 -33.6968 -216.508C20.0479 -240.217 69.4821 -261.871 127.059 -273.702C185.127 -285.555 250.933 -287.53 314.967 -268.189Z" stroke="url(#paint0_linear_2854_12568)" stroke-width="0.865741" stroke-miterlimit="10"/>
<path d="M-209.02 43.7838C-210.23 -16.0702 -188.092 -74.4348 -149.458 -115.827C-111.231 -156.834 -56.907 -180.849 -6.60342 -203.015C43.7002 -225.181 89.9832 -245.484 143.909 -256.571C198.24 -267.65 259.818 -269.499 319.763 -251.397C379.323 -233.294 437.271 -194.868 467.049 -142.781C496.831 -90.6951 498.439 -24.5629 477.517 31.5936C456.588 87.3775 413.125 133.192 362.016 155.724C311.309 178.635 253.353 178.263 199.442 194.151C145.517 210.404 95.6123 243.284 36.8618 251.411C-21.8956 259.91 -89.4982 243.284 -135.782 204.466C-182.057 165.334 -207.412 103.638 -209.02 43.7838Z" stroke="url(#paint1_linear_2854_12568)" stroke-width="0.865741" stroke-miterlimit="10"/>
<path d="M-168.091 40.4053C-169.214 -15.3523 -148.589 -69.7395 -112.6 -108.286C-76.9805 -146.492 -26.3946 -168.865 20.4971 -189.521C67.3888 -210.177 110.477 -229.098 160.722 -239.399C211.336 -249.727 268.662 -251.443 324.563 -234.578C380.054 -217.739 434.038 -181.926 461.782 -133.378C489.529 -84.8296 491.028 -23.2396 471.536 29.0797C452.04 81.0196 411.546 123.702 363.945 144.698C316.689 166.039 262.701 165.693 212.461 180.524C162.22 195.673 115.729 226.305 60.9922 233.88C6.24771 241.794 -56.7329 226.305 -99.8286 190.167C-142.968 153.649 -166.591 96.1627 -168.091 40.4053Z" stroke="url(#paint2_linear_2854_12568)" stroke-width="0.865741" stroke-miterlimit="10"/>
<path d="M-127.161 37.027C-128.197 -14.647 -109.094 -65.0375 -75.7274 -100.764C-42.7155 -136.164 4.18314 -156.9 47.6118 -176.034C91.0409 -195.167 130.993 -212.718 177.55 -222.281C224.436 -231.851 277.592 -233.447 329.359 -217.838C380.793 -202.21 430.777 -169.037 456.519 -124.067C482.256 -79.0964 483.617 -21.9826 465.55 26.4995C447.484 74.6619 409.966 114.212 365.841 133.665C322.066 153.443 272.037 153.124 225.479 166.837C178.926 180.87 135.846 209.261 85.1223 216.277C34.413 223.592 -23.9749 209.261 -63.9267 175.769C-103.878 141.951 -125.763 88.6944 -127.161 37.027Z" stroke="url(#paint3_linear_2854_12568)" stroke-width="0.865741" stroke-miterlimit="10"/>
<path d="M-86.2242 33.6415C-87.1878 -13.9358 -69.5627 -60.3425 -38.8764 -93.2356C-8.48697 -125.823 34.7029 -144.93 74.6982 -162.553C114.693 -180.177 151.486 -196.331 194.349 -205.116C237.54 -213.928 286.489 -215.391 334.163 -201C381.512 -186.608 427.614 -156.063 451.256 -114.65C474.902 -73.2379 476.23 -20.6924 459.569 23.9521C442.907 68.3039 408.378 104.708 367.746 122.665C327.442 140.847 281.36 140.555 238.494 153.183C195.633 166.105 155.954 192.248 109.245 198.706C62.5422 205.463 8.79052 192.248 -27.9667 161.404C-64.7961 130.273 -84.9491 81.2257 -86.2242 33.6415Z" stroke="url(#paint4_linear_2854_12568)" stroke-width="0.865741" stroke-miterlimit="10"/>
<path d="M-45.2945 30.2633C-46.1713 -13.2308 -30.082 -55.6474 -2.01777 -85.714C25.7634 -115.515 65.2442 -132.965 101.798 -149.073C138.352 -165.18 171.974 -179.931 211.165 -187.998C250.644 -196.052 295.386 -197.395 338.959 -184.241C382.235 -171.086 424.345 -143.161 445.985 -105.313C467.621 -67.4651 468.795 -19.4024 453.591 21.4048C438.379 61.9726 406.798 95.2249 369.658 111.605C332.815 128.231 290.696 127.985 251.521 139.537C212.331 151.355 176.072 175.243 133.376 181.149C90.6859 187.314 41.5774 175.203 7.92838 147.045C-25.7064 118.588 -44.1283 73.7506 -45.2945 30.2633Z" stroke="url(#paint5_linear_2854_12568)" stroke-width="0.865741" stroke-miterlimit="10"/>
<path d="M-4.36489 26.8984C-5.16202 -12.5056 9.39881 -50.9121 34.8406 -78.1789C60.0139 -105.18 95.7786 -120.988 128.892 -135.579C162.005 -150.17 192.481 -163.551 227.977 -170.826C263.74 -178.142 304.279 -179.339 343.754 -167.421C382.961 -155.53 421.113 -130.239 440.73 -95.9421C460.348 -61.6457 461.4 -18.1319 447.622 18.8579C433.855 55.5818 405.227 85.7416 371.559 100.579C338.175 115.655 300.028 115.416 264.524 125.851C229.029 136.551 196.177 158.198 157.493 163.552C118.815 169.145 74.3067 158.232 43.8376 132.661C13.3832 106.903 -3.33629 66.2824 -4.36489 26.8984Z" stroke="url(#paint6_linear_2854_12568)" stroke-width="0.865741" stroke-miterlimit="10"/>
<path d="M36.5648 23.4996C35.8404 -11.8078 48.8796 -46.2503 71.7062 -70.6641C94.2575 -94.8587 126.335 -109.024 155.991 -122.072C185.651 -135.12 212.976 -147.138 244.793 -153.675C276.849 -160.219 313.177 -161.31 348.55 -150.629C383.692 -139.949 417.884 -117.277 435.48 -86.5453C453.075 -55.8137 454.005 -16.7888 441.652 16.3437C429.336 49.257 403.663 76.2843 373.512 89.5785C343.596 103.092 309.404 102.879 277.588 112.25C245.771 121.84 216.331 141.239 181.667 146.034C147.002 151.049 107.108 141.239 79.8051 118.355C52.4438 95.2115 37.5138 58.8202 36.5648 23.4996Z" stroke="url(#paint7_linear_2854_12568)" stroke-width="0.865741" stroke-miterlimit="10"/>
<path d="M77.4943 20.1213C76.864 -11.1024 88.4109 -41.5549 108.564 -63.1358C128.508 -84.5303 156.848 -97.053 183.093 -108.625C209.338 -120.197 233.475 -130.784 261.604 -136.557C289.953 -142.336 322.066 -143.3 353.346 -133.857C384.415 -124.413 414.652 -104.368 430.184 -77.1948C445.717 -50.0211 446.525 -15.5317 435.662 13.7569C424.751 42.8594 402.075 66.761 375.412 78.519C348.964 90.4898 318.732 90.2704 290.602 98.5635C262.445 107.043 236.447 124.194 205.768 128.431C175.117 132.866 139.845 124.194 115.7 103.957C91.5621 83.5268 78.3344 51.3454 77.4943 20.1213Z" stroke="url(#paint8_linear_2854_12568)" stroke-width="0.865741" stroke-miterlimit="10"/>
<path d="M118.424 16.7363C117.881 -10.3908 127.914 -36.8531 145.423 -55.6142C162.756 -74.202 187.389 -85.0888 210.195 -95.1376C232.996 -105.186 253.978 -114.424 278.42 -119.425C303.049 -124.446 330.959 -125.284 358.15 -117.078C385.146 -108.871 411.416 -91.4532 424.918 -67.864C438.42 -44.2752 439.147 -14.275 429.665 11.1831C420.175 36.4547 400.468 57.2442 377.301 67.4593C354.317 77.8473 328.043 77.6744 303.601 84.8769C279.151 92.2456 256.512 107.156 229.898 110.814C203.259 114.664 172.612 107.129 151.66 89.5321C130.681 71.8419 119.156 43.8701 118.424 16.7363Z" stroke="url(#paint9_linear_2854_12568)" stroke-width="0.865741" stroke-miterlimit="10"/>
<path d="M159.353 13.3576C158.89 -9.68618 167.418 -32.1581 182.289 -48.0859C197.009 -63.8806 217.922 -73.1249 237.292 -81.6575C256.666 -90.1901 274.477 -98.0174 295.248 -102.274C316.161 -106.543 339.864 -107.255 362.95 -100.279C385.877 -93.309 408.191 -78.5119 419.659 -58.4605C431.127 -38.4095 431.74 -12.9448 423.687 8.67564C415.631 30.1567 398.896 47.7938 379.222 56.4725C359.661 65.291 337.387 65.1181 316.624 71.2632C295.861 77.5213 276.65 90.1837 254.027 93.3094C231.412 96.5814 205.383 90.1837 187.564 75.2468C169.733 60.1503 159.975 36.4014 159.353 13.3576Z" stroke="url(#paint10_linear_2854_12568)" stroke-width="0.865741" stroke-miterlimit="10"/>
</g>
<circle cx="321.586" cy="129.547" r="5.80564" transform="rotate(-19.0653 321.586 129.547)" stroke="#E88005" stroke-width="3.46296"/>
<g filter="url(#filter0_d_2854_12568)">
<path d="M336.069 129.999L332.918 132.938L336.973 134.938L335.516 137.843L331.477 135.887L330.934 140.126L321.873 129.303L336.069 129.999Z" fill="white"/>
<path d="M336.069 129.999L332.918 132.938L336.973 134.938L335.516 137.843L331.477 135.887L330.934 140.126L321.873 129.303L336.069 129.999Z" stroke="#E88005" stroke-width="1.73148"/>
</g>
</g>
<circle cx="91.7682" cy="46.75" r="6.06018" fill="#808CFF"/>
<circle cx="409.928" cy="174.447" r="3.89583" fill="#586AEA"/>
<rect x="348.958" y="70.7975" width="11.2765" height="11.2765" transform="rotate(-26.6171 348.958 70.7975)" stroke="#E37676" stroke-width="3.46296"/>
<defs>
<filter id="filter0_d_2854_12568" x="311.281" y="123.147" width="35.5331" height="31.174" filterUnits="userSpaceOnUse" color-interpolation-filters="sRGB">
<feFlood flood-opacity="0" result="BackgroundImageFix"/>
<feColorMatrix in="SourceAlpha" type="matrix" values="0 0 0 0 0 0 0 0 0 0 0 0 0 0 0 0 0 0 127 0" result="hardAlpha"/>
<feOffset dy="3.46296"/>
<feGaussianBlur stdDeviation="4.3287"/>
<feColorMatrix type="matrix" values="0 0 0 0 0.267483 0 0 0 0 0.281291 0 0 0 0 0.645833 0 0 0 0.4 0"/>
<feBlend mode="normal" in2="BackgroundImageFix" result="effect1_dropShadow_2854_12568"/>
<feBlend mode="normal" in="SourceGraphic" in2="effect1_dropShadow_2854_12568" result="shape"/>
</filter>
<linearGradient id="paint0_linear_2854_12568" x1="124.253" y1="-282.681" x2="124.253" y2="271.293" gradientUnits="userSpaceOnUse">
<stop stop-color="#586AEA" stop-opacity="0.1"/>
<stop offset="1" stop-color="#323C84" stop-opacity="0.6"/>
</linearGradient>
<linearGradient id="paint1_linear_2854_12568" x1="141.25" y1="-264.963" x2="141.25" y2="253.582" gradientUnits="userSpaceOnUse">
<stop stop-color="#586AEA" stop-opacity="0.1"/>
<stop offset="1" stop-color="#323C84" stop-opacity="0.6"/>
</linearGradient>
<linearGradient id="paint2_linear_2854_12568" x1="158.246" y1="-247.22" x2="158.246" y2="235.901" gradientUnits="userSpaceOnUse">
<stop stop-color="#586AEA" stop-opacity="0.1"/>
<stop offset="1" stop-color="#323C84" stop-opacity="0.6"/>
</linearGradient>
<linearGradient id="paint3_linear_2854_12568" x1="175.246" y1="-229.532" x2="175.246" y2="218.143" gradientUnits="userSpaceOnUse">
<stop stop-color="#586AEA" stop-opacity="0.1"/>
<stop offset="1" stop-color="#323C84" stop-opacity="0.6"/>
</linearGradient>
<linearGradient id="paint4_linear_2854_12568" x1="192.242" y1="-211.788" x2="192.242" y2="200.432" gradientUnits="userSpaceOnUse">
<stop stop-color="#586AEA" stop-opacity="0.1"/>
<stop offset="1" stop-color="#323C84" stop-opacity="0.6"/>
</linearGradient>
<linearGradient id="paint5_linear_2854_12568" x1="209.236" y1="-194.098" x2="209.236" y2="182.719" gradientUnits="userSpaceOnUse">
<stop stop-color="#586AEA" stop-opacity="0.1"/>
<stop offset="1" stop-color="#323C84" stop-opacity="0.6"/>
</linearGradient>
<linearGradient id="paint6_linear_2854_12568" x1="226.241" y1="-176.36" x2="226.241" y2="164.982" gradientUnits="userSpaceOnUse">
<stop stop-color="#586AEA" stop-opacity="0.1"/>
<stop offset="1" stop-color="#323C84" stop-opacity="0.6"/>
</linearGradient>
<linearGradient id="paint7_linear_2854_12568" x1="243.246" y1="-158.633" x2="243.246" y2="147.315" gradientUnits="userSpaceOnUse">
<stop stop-color="#586AEA" stop-opacity="0.1"/>
<stop offset="1" stop-color="#323C84" stop-opacity="0.6"/>
</linearGradient>
<linearGradient id="paint8_linear_2854_12568" x1="260.216" y1="-140.934" x2="260.216" y2="129.564" gradientUnits="userSpaceOnUse">
<stop stop-color="#586AEA" stop-opacity="0.1"/>
<stop offset="1" stop-color="#323C84" stop-opacity="0.6"/>
</linearGradient>
<linearGradient id="paint9_linear_2854_12568" x1="277.218" y1="-123.228" x2="277.218" y2="111.797" gradientUnits="userSpaceOnUse">
<stop stop-color="#586AEA" stop-opacity="0.1"/>
<stop offset="1" stop-color="#323C84" stop-opacity="0.6"/>
</linearGradient>
<linearGradient id="paint10_linear_2854_12568" x1="294.216" y1="-105.507" x2="294.216" y2="94.1454" gradientUnits="userSpaceOnUse">
<stop stop-color="#586AEA" stop-opacity="0.1"/>
<stop offset="1" stop-color="#323C84" stop-opacity="0.6"/>
</linearGradient>
<clipPath id="clip0_2854_12568">
<rect width="498.667" height="182.671" fill="white"/>
</clipPath>
</defs>
</svg>
