<svg width="499" height="183" viewBox="0 0 499 183" fill="none" xmlns="http://www.w3.org/2000/svg">
<g clip-path="url(#clip0_2868_42957)">
<g opacity="0.1">
<path d="M313.967 -198.189C377.6 -178.85 439.507 -137.803 471.315 -82.1523C503.124 -26.5009 504.85 44.1534 482.495 104.14C460.14 163.742 413.709 212.683 359.111 236.757C304.94 261.224 243.029 260.832 185.419 277.791C127.812 295.168 74.5022 330.329 11.7311 338.975C-51.0395 348.052 -123.264 330.289 -172.706 288.85C-222.147 247.019 -249.233 181.106 -250.95 117.169C-252.239 53.2314 -228.594 -9.12997 -187.324 -53.3357C-146.481 -97.1488 -88.4412 -122.8 -34.6968 -146.508C19.0479 -170.217 68.4821 -191.871 126.059 -203.702C184.127 -215.555 249.933 -217.53 313.967 -198.189Z" stroke="url(#paint0_linear_2868_42957)" stroke-width="0.865741" stroke-miterlimit="10"/>
<path d="M-210.02 113.784C-211.23 53.9298 -189.092 -4.43485 -150.458 -45.827C-112.231 -86.8338 -57.907 -110.849 -7.60342 -133.015C42.7002 -155.181 88.9832 -175.485 142.909 -186.571C197.24 -197.65 258.818 -199.499 318.763 -181.397C378.323 -163.294 436.271 -124.868 466.049 -72.7815C495.831 -20.6952 497.439 45.437 476.517 101.594C455.588 157.377 412.125 203.192 361.016 225.724C310.309 248.635 252.353 248.263 198.442 264.151C144.517 280.404 94.6123 313.284 35.8618 321.411C-22.8956 329.91 -90.4982 313.284 -136.782 274.465C-183.057 235.334 -208.412 173.638 -210.02 113.784Z" stroke="url(#paint1_linear_2868_42957)" stroke-width="0.865741" stroke-miterlimit="10"/>
<path d="M-169.091 110.405C-170.214 54.6477 -149.59 0.26047 -113.601 -38.2858C-77.981 -76.4924 -27.3951 -98.8648 19.4966 -119.521C66.3883 -140.177 109.477 -159.098 159.721 -169.399C210.335 -179.727 267.662 -181.443 323.563 -164.578C379.054 -147.739 433.038 -111.926 460.781 -63.3777C488.529 -14.8297 490.027 46.7604 470.535 99.0797C451.039 151.02 410.545 193.702 362.944 214.698C315.689 236.039 261.7 235.693 211.46 250.524C161.22 265.673 114.729 296.305 59.9917 303.88C5.24723 311.794 -57.7334 296.305 -100.829 260.167C-143.968 223.649 -167.592 166.163 -169.091 110.405Z" stroke="url(#paint2_linear_2868_42957)" stroke-width="0.865741" stroke-miterlimit="10"/>
<path d="M-128.161 107.027C-129.197 55.353 -110.094 4.96259 -76.7274 -30.7638C-43.7155 -66.164 3.18314 -86.9002 46.6118 -106.034C90.0409 -125.167 129.993 -142.717 176.55 -152.281C223.436 -161.851 276.592 -163.447 328.359 -147.838C379.793 -132.21 429.777 -99.0374 455.519 -54.0671C481.256 -9.09639 482.617 48.0175 464.55 96.4996C446.484 144.662 408.966 184.212 364.841 203.665C321.066 223.443 271.037 223.124 224.479 236.837C177.926 250.87 134.846 279.261 84.1223 286.277C33.413 293.592 -24.9749 279.261 -64.9267 245.769C-104.878 211.951 -126.763 158.694 -128.161 107.027Z" stroke="url(#paint3_linear_2868_42957)" stroke-width="0.865741" stroke-miterlimit="10"/>
<path d="M-87.2242 103.642C-88.1878 56.0642 -70.5627 9.65753 -39.8764 -23.2356C-9.48697 -55.823 33.7029 -74.9297 73.6982 -92.5534C113.693 -110.177 150.486 -126.331 193.349 -135.116C236.54 -143.928 285.489 -145.391 333.163 -131C380.512 -116.608 426.614 -86.0626 450.256 -44.6503C473.902 -3.23794 475.23 49.3076 458.569 93.9521C441.907 138.304 407.378 174.708 366.746 192.665C326.442 210.847 280.36 210.555 237.494 223.183C194.633 236.105 154.954 262.248 108.245 268.706C61.5422 275.463 7.79052 262.248 -28.9667 231.404C-65.7961 200.273 -85.9491 151.226 -87.2242 103.642Z" stroke="url(#paint4_linear_2868_42957)" stroke-width="0.865741" stroke-miterlimit="10"/>
<path d="M-46.295 100.263C-47.1718 56.7692 -31.0825 14.3526 -3.01826 -15.714C24.7629 -45.5148 64.2437 -62.9654 100.798 -79.073C137.352 -95.1805 170.974 -109.931 210.165 -117.998C249.644 -126.052 294.386 -127.395 337.958 -114.241C381.234 -101.086 423.345 -73.1607 444.985 -35.3127C466.621 2.53488 467.794 50.5976 452.591 91.4048C437.379 131.973 405.798 165.225 368.658 181.605C331.814 198.231 289.695 197.985 250.521 209.537C211.33 221.355 175.071 245.243 132.375 251.149C89.6854 257.314 40.5769 245.203 6.92789 217.045C-26.7069 188.588 -45.1288 143.751 -46.295 100.263Z" stroke="url(#paint5_linear_2868_42957)" stroke-width="0.865741" stroke-miterlimit="10"/>
<path d="M-5.36537 96.8985C-6.16251 57.4945 8.39832 19.088 33.8401 -8.17883C59.0134 -35.1795 94.7781 -50.9877 127.891 -65.5786C161.005 -80.17 191.481 -93.5504 226.976 -100.826C262.74 -108.142 303.279 -109.339 342.754 -97.4212C381.961 -85.5301 420.112 -60.2387 439.73 -25.9419C459.348 8.35441 460.399 51.8682 446.621 88.858C432.855 125.582 404.226 155.742 370.558 170.579C337.174 185.655 299.027 185.416 263.524 195.851C228.028 206.551 195.176 228.199 156.493 233.552C117.815 239.145 73.3062 228.232 42.8372 202.661C12.3828 176.904 -4.33677 136.282 -5.36537 96.8985Z" stroke="url(#paint6_linear_2868_42957)" stroke-width="0.865741" stroke-miterlimit="10"/>
<path d="M35.5648 93.4995C34.8404 58.1921 47.8796 23.7497 70.7062 -0.66417C93.2575 -24.8588 125.335 -39.024 154.991 -52.0723C184.651 -65.1203 211.976 -77.1378 243.793 -83.6752C275.849 -90.2193 312.177 -91.3101 347.55 -80.6294C382.692 -69.9488 416.884 -47.2774 434.48 -16.5454C452.075 14.1863 453.005 53.2112 440.652 86.3437C428.336 119.257 402.663 146.284 372.512 159.578C342.596 173.092 308.404 172.879 276.588 182.25C244.771 191.84 215.331 211.239 180.667 216.034C146.002 221.049 106.108 211.239 78.8051 188.355C51.4438 165.211 36.5138 128.82 35.5648 93.4995Z" stroke="url(#paint7_linear_2868_42957)" stroke-width="0.865741" stroke-miterlimit="10"/>
<path d="M76.4943 90.1212C75.864 58.8974 87.4109 28.445 107.564 6.86408C127.508 -14.5305 155.848 -27.0531 182.093 -38.6248C208.338 -50.1968 232.475 -60.7843 260.604 -66.5567C288.953 -72.3362 321.066 -73.3003 352.346 -63.8569C383.415 -54.4132 413.652 -34.3686 429.184 -7.1949C444.717 19.9788 445.525 54.4682 434.662 83.7568C423.751 112.859 401.075 136.761 374.412 148.519C347.964 160.49 317.732 160.27 289.602 168.563C261.445 177.043 235.447 194.194 204.768 198.431C174.117 202.866 138.845 194.194 114.7 173.957C90.5621 153.527 77.3344 121.345 76.4943 90.1212Z" stroke="url(#paint8_linear_2868_42957)" stroke-width="0.865741" stroke-miterlimit="10"/>
<path d="M117.423 86.7363C116.88 59.6092 126.913 33.1469 144.422 14.3858C161.756 -4.20196 186.389 -15.0888 209.194 -25.1376C231.996 -35.1864 252.978 -44.4239 277.42 -49.425C302.049 -54.4462 329.958 -55.2843 357.15 -47.0775C384.146 -38.8707 410.415 -21.4532 423.917 2.136C437.419 25.7248 438.146 55.725 428.664 81.1831C419.174 106.455 399.467 127.244 376.3 137.459C353.316 147.847 327.043 147.674 302.601 154.877C278.151 162.246 255.512 177.156 228.897 180.814C202.258 184.664 171.611 177.129 150.66 159.532C129.681 141.842 118.155 113.87 117.423 86.7363Z" stroke="url(#paint9_linear_2868_42957)" stroke-width="0.865741" stroke-miterlimit="10"/>
<path d="M158.353 83.3576C157.89 60.3138 166.418 37.8418 181.288 21.914C196.009 6.1193 216.922 -3.12498 236.292 -11.6576C255.666 -20.1902 273.477 -28.0175 294.248 -32.2737C315.161 -36.5434 338.864 -37.2551 361.949 -30.2789C384.877 -23.309 407.191 -8.51192 418.658 11.5394C430.126 31.5904 430.739 57.0551 422.687 78.6756C414.63 100.157 397.896 117.794 378.221 126.472C358.66 135.291 336.387 135.118 315.624 141.263C294.861 147.521 275.649 160.184 253.026 163.309C230.412 166.581 204.382 160.184 186.563 145.247C168.732 130.15 158.974 106.401 158.353 83.3576Z" stroke="url(#paint10_linear_2868_42957)" stroke-width="0.865741" stroke-miterlimit="10"/>
</g>
<circle cx="321.586" cy="129.547" r="5.80564" transform="rotate(-19.0653 321.586 129.547)" stroke="#CCD600" stroke-width="3.46296"/>
<g filter="url(#filter0_d_2868_42957)">
<path d="M336.068 129.999L332.917 132.938L336.972 134.938L335.516 137.843L331.477 135.887L330.934 140.126L321.872 129.303L336.068 129.999Z" fill="white"/>
<path d="M336.068 129.999L332.917 132.938L336.972 134.938L335.516 137.843L331.477 135.887L330.934 140.126L321.872 129.303L336.068 129.999Z" stroke="#CCD600" stroke-width="1.73148"/>
</g>
<path d="M242.732 28.6784C241.423 26.7883 241.21 24.6855 242.426 22.6786C244.361 19.3871 249.522 18.5875 252.611 20.6355C255.609 22.6234 256.226 25.7163 254.333 28.6832C254.747 28.7327 255.147 28.8251 255.55 28.9163C264.136 30.8537 271.682 36.7523 275.249 44.8507C276.34 47.3296 276.853 49.6917 277.198 52.3665C278.858 52.6557 283.931 53.7789 285.446 54.455L285.449 67.8264L285.534 67.8018C287.746 67.1401 292.433 65.1562 293.561 63.2321L293.643 63.0948C293.958 62.5588 294.199 61.83 294.401 61.2345C294.644 61.2071 294.529 61.1818 294.746 61.3469C294.903 62.0314 294.848 63.7093 294.846 64.4938L294.835 69.542C294.835 71.4265 294.884 73.392 294.823 75.2727C294.805 75.8359 294.554 76.4993 294.257 76.9778C292.562 79.7133 286.868 81.8559 283.799 82.6309C283.801 83.082 283.82 84.7921 283.75 85.1164L283.812 85.4013C284.703 86.4136 285.543 87.3001 286.119 88.5387C288.665 94.0113 283.445 97.4763 279.055 99.2777C278.715 99.415 277.969 99.6901 277.71 99.8831C277.506 99.847 275.476 100.536 275.287 100.653C274.473 100.67 269.598 99.3641 268.462 99.0923L268.471 98.7008C268.191 96.7594 268.278 94.0469 267.728 92.2312C267.086 90.1116 264.582 90.5573 262.839 90.7098L258.159 91.1227L252.636 91.604C251.058 91.7423 248.825 91.6067 247.86 93.0636C247.267 93.9588 247.46 95.3774 247.55 96.3919C247.801 98.8621 247.946 101.367 248.23 103.832C247.594 103.823 246.773 103.79 246.152 103.835C245.528 103.769 244.709 103.786 244.072 103.769C237.604 103.594 231.141 102.882 224.826 101.452C223.944 101.253 222.215 100.608 221.411 100.552C221.122 100.414 220.511 100.209 220.187 100.089C216.454 98.8381 211.062 96.4564 210.322 92.1109C209.665 88.2533 213.113 85.887 215.171 83.1077C215.655 83.0826 216.335 83.4457 217.025 83.4364C217.505 82.9995 217.284 79.6231 217.344 78.6365C217.688 78.176 218.032 76.3456 218.16 75.6987C218.953 71.6939 219.053 67.5109 219.178 63.4351C219.233 61.6502 219.393 59.8413 219.456 58.1101C219.71 51.095 220.367 45.918 224.586 40.0123C228.707 34.2441 235.703 29.8047 242.732 28.6784ZM278.168 69.7219C278.839 69.6847 283.661 68.4936 284.257 68.1704C283.323 67.7444 279.181 66.8453 277.99 66.5784C278.027 67.5573 278.043 68.7638 278.168 69.7219Z" fill="#39CBCB"/>
<path d="M278.415 67.0503C279.032 67.2953 278.286 68.1719 278.676 68.8894C278.963 69.0573 278.978 68.9846 279.391 68.9512L279.395 69.0573C279.172 69.1377 278.725 69.1355 278.521 69.0158C278.39 68.5711 278.421 67.5545 278.415 67.0503Z" fill="#DAA500" fill-opacity="0.0117647"/>
<path d="M285.449 67.8263L285.533 67.8016C287.745 67.1399 292.433 65.156 293.56 63.232L293.642 63.0947C293.957 62.5586 294.199 61.8298 294.4 61.2343C294.644 61.207 294.529 61.1817 294.746 61.3467C294.903 62.0312 294.848 63.7091 294.846 64.4936L294.835 69.5418C294.835 71.4263 294.883 73.3918 294.823 75.2725C294.805 75.8358 294.553 76.4991 294.257 76.9777C292.561 79.7131 286.868 81.8558 283.799 82.6307C283.8 83.0819 283.819 84.792 283.75 85.1163L283.811 85.4012C283.799 86.2548 283.929 89.5049 283.662 90.0611C283.419 90.2252 283.376 90.1951 283.13 90.0053C282.883 89.4289 278.9 84.8018 278.232 83.993C277.211 84.2265 270.574 85.4936 269.982 85.2437C269.639 84.2385 269.807 73.0691 269.839 71.1496C270.526 70.9894 271.412 70.9139 272.123 70.7914C273.991 70.4704 276.368 70.2145 278.167 69.7217C278.838 69.6845 283.661 68.4934 284.257 68.1702C284.641 68.1303 285.076 67.9542 285.449 67.8263Z" fill="#E37676"/>
<path d="M277.198 52.3665C278.858 52.6556 283.931 53.7789 285.446 54.455L285.449 67.8264C285.077 67.9544 284.641 68.1305 284.257 68.1704C283.323 67.7444 279.181 66.8453 277.99 66.5784C277.868 65.4145 277.935 63.6473 277.851 62.4006C277.625 59.0533 277.547 55.7051 277.198 52.3665Z" fill="#00C8FB"/>
<path d="M251.802 71.9387C254.558 71.8337 255.296 75.5033 252.533 76.6254C249.576 76.8059 249.012 72.7897 251.802 71.9387Z" fill="black"/>
<path d="M245.155 71.942C247.808 71.7763 248.647 75.4179 245.937 76.6129C242.898 76.9175 242.362 72.6792 245.155 71.942Z" fill="black"/>
<path d="M239.959 67.4785C241.057 67.4113 244.029 67.589 244.579 68.6844C244.628 69.9914 243.156 69.2181 242.507 68.9999C241.269 68.5838 240.084 68.7112 238.835 68.9928C237.879 69.2143 237.023 69.8372 236.205 70.3617C235.396 70.8801 234.865 69.9471 235.279 69.5156C236.46 68.2819 238.312 67.7317 239.959 67.4785Z" fill="black"/>
<path d="M255.162 67.477C256.915 67.3993 258.515 67.6558 260.058 68.5445C260.669 68.8961 261.624 69.5075 261.474 70.3202C260.842 70.9945 259.755 69.834 259.092 69.501L258.992 69.4512C257.186 68.5707 254.96 68.4761 253.131 69.3462C252.812 69.4977 252.622 69.5064 252.301 69.3637C251.016 68.0747 254.53 67.5765 255.162 67.477Z" fill="black"/>
<path d="M250.243 83.2673C250.82 83.2083 251.784 83.1634 251.772 84.0023C251.367 84.6892 250.107 84.4699 249.086 84.9539L248.995 84.9982C248.669 85.2087 248.332 85.4537 247.918 85.2596C247.567 85.0944 247.585 84.6591 247.791 84.378C248.333 83.6376 249.394 83.4248 250.243 83.2673Z" fill="black"/>
<path d="M248.23 103.832C247.947 101.367 247.801 98.8621 247.55 96.3919C247.46 95.3775 247.267 93.9589 247.86 93.0636C248.825 91.6068 251.058 91.7424 252.637 91.604L258.159 91.1228L262.839 90.7099C264.582 90.5573 267.087 90.1116 267.728 92.2313C268.278 94.0469 268.191 96.7594 268.471 98.7008L268.463 99.0924C269.598 99.3642 274.473 100.67 275.288 100.653C275.476 100.536 277.506 99.8471 277.71 99.8832C277.969 99.6901 278.715 99.415 279.056 99.2778C282.237 102.054 286.303 104.48 286.714 109.105C287.064 113.039 283.695 116.956 279.789 117.16C276.823 117.315 273.151 116.167 270.136 115.965C270.111 115.963 269.98 116.064 269.956 116.094C270.046 116.918 270.102 117.818 270.212 118.629C270.531 120.981 270.563 123.306 267.537 123.59L267.403 123.602C267.409 123.87 268.889 126.267 269.155 126.526C269.868 127.219 270.886 127.972 271.68 128.596L276.383 132.3C282.716 137.364 289.344 142.452 295.514 147.693C299.678 145.454 304.165 143.465 308.388 141.32C308.861 141.081 309.508 141.723 308.989 142.435C308.514 143.087 308.024 143.763 307.538 144.415L304.624 148.334C301.289 152.903 297.962 157.506 294.521 161.995C294.299 162.284 294.065 162.577 293.795 162.824C293.791 162.827 293.671 162.933 293.666 162.933C293.206 162.964 289.92 160.905 289.233 160.51C279.045 154.657 264.904 147.508 253.546 145.463C251.093 145.021 248.624 144.79 246.14 145.115C235.786 146.468 219.017 156.188 209.447 161.353C208.623 161.798 204.497 164.138 203.898 164.159C203.714 164.165 203.543 164.116 203.417 163.978C202.902 163.411 202.483 162.589 202.065 161.941L199.25 157.572L193.211 148.193C192.813 147.575 189.851 143.173 189.89 142.726C190.022 142.431 190.006 142.438 190.266 142.254C190.452 142.208 190.618 142.179 190.801 142.261C194.93 144.096 199.437 145.652 203.496 147.597L218.646 133.889L223.227 129.745C223.586 129.42 225.448 127.75 225.66 127.5C226.101 126.98 227.424 123.466 227.513 122.815C227.666 121.684 227.831 119.628 227.884 118.446C227.944 117.127 228.206 114.722 228.133 113.49C224.41 121.526 220.276 130.862 213.514 136.878C210.3 139.737 204.733 142.496 200.408 142.206C199.488 142.145 198.286 141.651 198.372 140.507C198.523 139.097 197.205 139.873 196.348 139.103C195.524 138.363 195.981 137.846 195.69 136.976C195.708 137.03 194.791 136.272 194.631 136.071C194.465 135.41 194.44 135.07 194.803 134.476C195.348 133.585 194.731 133.624 194.486 132.784C194.389 132.451 194.536 131.782 194.734 131.486C195.828 129.847 198.421 131.059 200.244 130.511C202.26 129.931 204.297 128.586 205.642 126.922C209.666 121.942 212.412 115.584 215.243 109.871C216.955 106.418 218.162 103.366 220.187 100.089C220.511 100.209 221.122 100.414 221.412 100.552C222.215 100.608 223.944 101.253 224.826 101.452C231.141 102.882 237.604 103.594 244.073 103.769C244.709 103.786 245.528 103.769 246.152 103.835C246.773 103.79 247.594 103.823 248.23 103.832Z" fill="black"/>
<path d="M248.23 103.832C247.947 101.367 247.801 98.8621 247.55 96.3919C247.46 95.3775 247.267 93.9589 247.86 93.0636C248.826 91.6068 251.058 91.7424 252.637 91.604L258.16 91.1228L262.839 90.7099C264.582 90.5573 267.087 90.1116 267.728 92.2313C268.278 94.0469 268.191 96.7594 268.471 98.7008L268.463 99.0924C269.599 99.3642 274.473 100.67 275.288 100.653C275.476 100.536 277.506 99.8471 277.71 99.8832C277.97 99.6901 278.715 99.415 279.056 99.2778C282.237 102.054 286.303 104.48 286.714 109.105C287.064 113.039 283.695 116.956 279.79 117.16C276.823 117.315 273.151 116.167 270.136 115.965C270.112 115.963 269.98 116.064 269.956 116.094C270.046 116.918 270.102 117.818 270.212 118.629C270.532 120.981 270.563 123.306 267.537 123.59L267.403 123.602L253.94 124.791C250.445 125.094 249.925 123.939 249.711 120.77C247.29 120.701 245.123 120.682 242.703 120.779C241.754 120.816 240.047 120.994 239.229 120.968L239.31 120.886C240.156 120.734 241.13 120.716 241.994 120.653C244.556 120.466 247.085 120.5 249.653 120.57C249.294 115.142 248.676 109.379 248.203 103.931C247.622 103.932 246.675 103.972 246.152 103.835C246.773 103.79 247.594 103.823 248.23 103.832Z" fill="#F8F8F8"/>
<path d="M260.935 101.492C260.553 100.517 260.542 99.3148 261.541 98.7127C262.951 97.8628 264.994 98.2768 266.514 98.5683C267.171 98.7789 267.809 98.9052 268.462 99.0922C269.598 99.364 274.472 100.669 275.287 100.652C275.476 100.536 277.505 99.8469 277.71 99.883C277.969 99.69 278.714 99.4149 279.055 99.2776C282.237 102.054 286.302 104.48 286.714 109.104C287.064 113.039 283.695 116.955 279.789 117.16C276.822 117.315 273.15 116.167 270.135 115.964C270.111 115.963 269.98 116.063 269.955 116.093C269.951 116.062 269.892 115.962 269.874 115.928C269.525 115.79 269.069 115.768 268.687 115.725C266.474 115.223 263.897 115.104 261.621 114.711C259.184 114.29 257.671 112.22 260.335 110.8C257.851 109.559 257.253 106.964 260.265 105.96C258.061 104.425 258.38 102.317 260.935 101.492Z" fill="#F8F8F8"/>
<path d="M260.935 101.492C260.553 100.517 260.542 99.3148 261.541 98.7127C262.951 97.8628 264.994 98.2768 266.514 98.5683C267.171 98.7789 267.809 98.9052 268.462 99.0922C269.598 99.364 274.472 100.669 275.287 100.652C275.645 100.994 275.856 101.208 275.572 101.685C274.814 102.157 273.457 101.554 272.612 101.408C269.427 100.86 266.114 99.3307 262.875 99.5636C262.601 99.5839 262.168 99.7703 262.036 100.053C261.524 101.563 263.901 101.215 264.251 102.181C264.059 103.294 262.736 102.65 262.005 102.683C261.563 102.703 260.69 102.805 260.386 103.161C259.117 104.647 262.398 105.42 263.178 106.001C263.421 106.184 263.433 106.321 263.453 106.557C262.983 107.569 261.211 106.719 260.18 107.345C258.593 108.228 260.48 109.606 261.486 109.915C262.09 110.1 263.46 110.169 263.218 111.105C262.526 111.86 260.439 111.581 260.234 112.565C260.351 113.013 261.038 113.24 261.466 113.327C263.511 113.741 265.629 113.946 267.704 114.258L274.245 115.256C275.949 115.517 278.389 116.04 280.076 115.834C282.231 115.571 284.314 113.757 285.058 111.733C286.572 107.613 283.385 104.397 280.39 102.071C279.499 101.373 278.627 100.585 277.71 99.883C277.969 99.69 278.714 99.4149 279.055 99.2776C282.237 102.054 286.302 104.48 286.714 109.104C287.064 113.039 283.695 116.955 279.789 117.16C276.822 117.315 273.15 116.167 270.135 115.964C270.111 115.963 269.98 116.063 269.955 116.093C269.951 116.062 269.892 115.962 269.874 115.928C269.525 115.79 269.069 115.768 268.687 115.725C266.474 115.223 263.897 115.104 261.621 114.711C259.184 114.29 257.671 112.22 260.335 110.8C257.851 109.559 257.253 106.964 260.265 105.96C258.061 104.425 258.38 102.317 260.935 101.492Z" fill="black"/>
<path d="M248.23 103.832C247.947 101.367 247.801 98.8621 247.55 96.3919C247.46 95.3775 247.267 93.9589 247.86 93.0636C248.826 91.6068 251.058 91.7424 252.637 91.604L258.16 91.1228L262.839 90.7099C264.582 90.5573 267.087 90.1116 267.728 92.2313C268.278 94.0469 268.191 96.7594 268.471 98.7008L268.463 99.0924C267.81 98.9054 267.172 98.779 266.514 98.5685C266.794 98.5696 266.958 98.6254 267.136 98.4936C266.945 97.0788 266.813 93.54 266.457 92.4938C266.111 92.1482 266.031 92.1017 265.604 91.8589C264.666 91.8042 260.619 92.1985 259.422 92.3292C256.266 92.6726 252.761 92.8159 249.649 93.2031C249.161 93.5525 249.036 93.6543 248.764 94.1836C248.693 94.9307 248.938 97.1083 249.014 97.98L249.653 105.27L250.66 116.748C250.824 118.615 250.978 120.484 251.164 122.349C251.231 123.022 251.781 123.33 252.323 123.589C257.451 123.248 262.633 122.654 267.758 122.238C270.295 122.032 268.192 117.33 268.795 115.899L268.688 115.725C269.07 115.768 269.526 115.791 269.874 115.928C269.892 115.962 269.951 116.062 269.956 116.094C270.046 116.918 270.102 117.818 270.212 118.629C270.532 120.981 270.563 123.306 267.537 123.59L267.403 123.602L253.94 124.791C250.445 125.094 249.925 123.939 249.711 120.77C247.29 120.701 245.123 120.682 242.703 120.779C241.754 120.816 240.047 120.994 239.229 120.968L239.31 120.886C240.156 120.734 241.13 120.716 241.994 120.653C244.556 120.466 247.085 120.5 249.653 120.57C249.294 115.142 248.676 109.379 248.203 103.931C247.622 103.932 246.675 103.972 246.152 103.835C246.773 103.79 247.594 103.823 248.23 103.832Z" fill="#D2D2D2"/>
<path d="M255.51 95.3057C256.403 95.362 256.477 96.5236 256.511 97.2329C256.528 97.876 256.872 99.79 256.408 100.235C255.949 100.675 253.04 100.764 252.351 100.83C251.136 100.645 251.455 98.728 251.27 97.7929C251.154 97.2088 251.15 96.3021 251.534 95.8143C252.081 95.4938 254.688 95.3806 255.51 95.3057Z" fill="#586AEA"/>
<path d="M221.411 100.552C222.215 100.608 223.944 101.252 224.825 101.452C231.141 102.882 237.604 103.594 244.072 103.768C244.709 103.785 245.528 103.768 246.152 103.835C246.674 103.972 247.622 103.932 248.203 103.931C248.676 109.378 249.294 115.142 249.652 120.57C247.085 120.5 244.556 120.466 241.993 120.653C241.13 120.716 240.155 120.734 239.309 120.886L239.229 120.968C236.072 121.201 231.93 121.729 228.855 122.442C229.35 118.334 229.375 113.965 229.64 109.827C229.685 109.131 228.739 108.973 228.54 109.421C224.718 118.031 220.824 127.074 214.484 134.191C211.173 137.827 205.218 141.168 200.378 140.899C200.171 140.887 199.744 140.756 199.659 140.539C199.21 139.399 201.312 139.337 200.497 138.222C199.697 137.794 196.886 139.147 197.011 137.497C197.436 136.633 199.527 137.108 200.25 136.408C200.601 136.069 200.025 135.469 199.845 135.453C199.104 135.392 196.059 136.264 195.807 135.279C195.973 134.812 196.373 134.601 196.779 134.331C197.366 134.338 199.545 134.29 199.42 133.454C199.23 132.179 196.541 133.617 195.733 132.647C195.68 131.87 196.484 131.805 197.062 131.885C204.532 132.898 208.628 125.557 211.609 119.977C214.312 114.918 216.696 109.817 219.127 104.631C219.762 103.277 220.618 101.819 221.411 100.552Z" fill="#F8F8F8"/>
<path d="M209.811 81.8262C209.809 82.6017 210.218 86.6934 209.622 86.8411C209.052 86.5972 208.219 85.0938 207.801 84.4917C206.704 82.914 205.649 81.1022 204.48 79.5868C204.121 79.122 202.891 78.3503 202.435 77.8198C202.113 77.4813 201.515 76.696 201.403 76.27C201.258 75.7177 201.217 75.0193 201.215 74.4686C201.199 70.1816 201.215 65.893 201.218 61.6052C201.221 57.4328 207.914 55.3414 211.176 54.2342C211.793 54.0246 212.904 53.6407 213.524 53.6625C213.773 53.8261 213.68 53.7174 213.791 54.0185L213.782 54.1033C213.636 55.7164 213.96 67.456 213.601 67.7699C213.229 68.0959 212.671 67.9466 212.3 68.2993C213.369 68.5312 216.409 68.9369 217.128 69.3389C217.511 70.0821 217.104 77.1505 217.344 78.6363C217.284 79.6229 217.505 82.9993 217.025 83.4362C216.335 83.4455 215.655 83.0824 215.171 83.1076C214.954 82.9977 213.971 82.8221 213.684 82.7603C212.396 82.4814 211.052 82.2834 209.811 81.8262Z" fill="#AE9EFC"/>
<path d="M212.3 68.2993C212.274 68.2999 212.249 68.2999 212.223 68.2999C209.381 67.648 201.408 64.7884 201.841 61.2329C202.252 57.8636 208.317 55.8334 211.076 54.9231C211.908 54.6487 212.918 54.5085 213.699 54.1122C213.73 54.081 213.76 54.0498 213.791 54.0186L213.783 54.1033C213.636 55.7164 213.96 67.456 213.602 67.7699C213.229 68.0959 212.672 67.9466 212.3 68.2993Z" fill="#7279F8"/>
<path d="M214.213 53.6638C214.402 53.8953 214.322 57.6254 214.321 58.1633L214.32 67.7094L214.182 67.7225C214.066 67.4255 214.095 53.9801 214.213 53.6638Z" fill="#3E3ED2" fill-opacity="0.0117647"/>
<path d="M295.34 61.2874C295.376 61.3376 295.428 61.3795 295.448 61.4379C295.486 61.5463 295.495 74.7865 295.429 75.6445L295.329 75.638C295.254 75.4947 295.197 61.817 295.34 61.2874Z" fill="#F87293" fill-opacity="0.0117647"/>
<path d="M218.229 70.3201L218.329 70.4196C218.417 70.996 218.373 71.4505 218.344 72.0307C218.069 71.7004 218.205 70.7942 218.229 70.3201Z" fill="#DAA500" fill-opacity="0.01"/>
<path d="M270.668 117.181C270.782 117.609 270.805 118.521 270.692 118.956C270.441 118.524 270.585 117.673 270.668 117.181Z" fill="#A2A2A2" fill-opacity="0.0117647"/>
<path d="M270.814 119.773C271.053 120.032 270.966 121.052 270.946 121.408C270.664 121.188 270.798 120.145 270.814 119.773Z" fill="#A2A2A2" fill-opacity="0.0117647"/>
</g>
<circle cx="91.7682" cy="46.7499" r="6.06018" fill="#808CFF"/>
<circle cx="409.928" cy="174.447" r="3.89583" fill="#586AEA"/>
<rect x="348.958" y="70.7974" width="11.2765" height="11.2765" transform="rotate(-26.6171 348.958 70.7974)" stroke="#E37676" stroke-width="3.46296"/>
<defs>
<filter id="filter0_d_2868_42957" x="311.28" y="123.147" width="35.5336" height="31.1739" filterUnits="userSpaceOnUse" color-interpolation-filters="sRGB">
<feFlood flood-opacity="0" result="BackgroundImageFix"/>
<feColorMatrix in="SourceAlpha" type="matrix" values="0 0 0 0 0 0 0 0 0 0 0 0 0 0 0 0 0 0 127 0" result="hardAlpha"/>
<feOffset dy="3.46296"/>
<feGaussianBlur stdDeviation="4.3287"/>
<feColorMatrix type="matrix" values="0 0 0 0 0.267483 0 0 0 0 0.281291 0 0 0 0 0.645833 0 0 0 0.4 0"/>
<feBlend mode="normal" in2="BackgroundImageFix" result="effect1_dropShadow_2868_42957"/>
<feBlend mode="normal" in="SourceGraphic" in2="effect1_dropShadow_2868_42957" result="shape"/>
</filter>
<linearGradient id="paint0_linear_2868_42957" x1="123.253" y1="-212.681" x2="123.253" y2="341.293" gradientUnits="userSpaceOnUse">
<stop stop-color="#586AEA" stop-opacity="0.1"/>
<stop offset="1" stop-color="#323C84" stop-opacity="0.6"/>
</linearGradient>
<linearGradient id="paint1_linear_2868_42957" x1="140.25" y1="-194.963" x2="140.25" y2="323.582" gradientUnits="userSpaceOnUse">
<stop stop-color="#586AEA" stop-opacity="0.1"/>
<stop offset="1" stop-color="#323C84" stop-opacity="0.6"/>
</linearGradient>
<linearGradient id="paint2_linear_2868_42957" x1="157.245" y1="-177.22" x2="157.245" y2="305.901" gradientUnits="userSpaceOnUse">
<stop stop-color="#586AEA" stop-opacity="0.1"/>
<stop offset="1" stop-color="#323C84" stop-opacity="0.6"/>
</linearGradient>
<linearGradient id="paint3_linear_2868_42957" x1="174.246" y1="-159.532" x2="174.246" y2="288.143" gradientUnits="userSpaceOnUse">
<stop stop-color="#586AEA" stop-opacity="0.1"/>
<stop offset="1" stop-color="#323C84" stop-opacity="0.6"/>
</linearGradient>
<linearGradient id="paint4_linear_2868_42957" x1="191.242" y1="-141.788" x2="191.242" y2="270.432" gradientUnits="userSpaceOnUse">
<stop stop-color="#586AEA" stop-opacity="0.1"/>
<stop offset="1" stop-color="#323C84" stop-opacity="0.6"/>
</linearGradient>
<linearGradient id="paint5_linear_2868_42957" x1="208.235" y1="-124.098" x2="208.235" y2="252.719" gradientUnits="userSpaceOnUse">
<stop stop-color="#586AEA" stop-opacity="0.1"/>
<stop offset="1" stop-color="#323C84" stop-opacity="0.6"/>
</linearGradient>
<linearGradient id="paint6_linear_2868_42957" x1="225.24" y1="-106.36" x2="225.24" y2="234.982" gradientUnits="userSpaceOnUse">
<stop stop-color="#586AEA" stop-opacity="0.1"/>
<stop offset="1" stop-color="#323C84" stop-opacity="0.6"/>
</linearGradient>
<linearGradient id="paint7_linear_2868_42957" x1="242.246" y1="-88.6326" x2="242.246" y2="217.315" gradientUnits="userSpaceOnUse">
<stop stop-color="#586AEA" stop-opacity="0.1"/>
<stop offset="1" stop-color="#323C84" stop-opacity="0.6"/>
</linearGradient>
<linearGradient id="paint8_linear_2868_42957" x1="259.216" y1="-70.9341" x2="259.216" y2="199.564" gradientUnits="userSpaceOnUse">
<stop stop-color="#586AEA" stop-opacity="0.1"/>
<stop offset="1" stop-color="#323C84" stop-opacity="0.6"/>
</linearGradient>
<linearGradient id="paint9_linear_2868_42957" x1="276.217" y1="-53.228" x2="276.217" y2="181.797" gradientUnits="userSpaceOnUse">
<stop stop-color="#586AEA" stop-opacity="0.1"/>
<stop offset="1" stop-color="#323C84" stop-opacity="0.6"/>
</linearGradient>
<linearGradient id="paint10_linear_2868_42957" x1="293.216" y1="-35.5073" x2="293.216" y2="164.145" gradientUnits="userSpaceOnUse">
<stop stop-color="#586AEA" stop-opacity="0.1"/>
<stop offset="1" stop-color="#323C84" stop-opacity="0.6"/>
</linearGradient>
<clipPath id="clip0_2868_42957">
<rect width="498.667" height="182.671" fill="white"/>
</clipPath>
</defs>
</svg>
